<svg xmlns="http://www.w3.org/2000/svg" viewBox="0 0 1792 9022.243"><symbol id="hex-pattern" viewBox="0 0 95 80"><g stroke="#FFF" fill="none" fill-rule="evenodd" opacity=".081"><path d="M70.956.313H23.894L.363 40.413l23.53 40.1h47.063l23.531-40.1z" transform="translate(1 1)"/><path d="M.362 40.413h47.063L70.956.313m0 80.2l-23.531-40.1" transform="translate(1 1)"/></g></symbol><symbol id="icon-accordion-close" viewBox="0 0 14 14"><path d="M9.692 0v8.307H18v1.385H9.692V18H8.308l-.001-8.308H0V8.308l8.307-.001V0h1.385z" fill="currentColor" transform="rotate(45 10.435 5.535)" fill-rule="evenodd" opacity=".9"/></symbol><symbol id="icon-accordion-open" viewBox="0 0 19 19"><path d="M9.692 0v8.307H18v1.385H9.692V18H8.308l-.001-8.308H0V8.308l8.307-.001V0h1.385z" fill="currentColor" transform="translate(.97 .97)" fill-rule="evenodd" opacity=".9"/></symbol><symbol id="icon-arrow-down" viewBox="0 0 16 10"><path d="M312 411l8-10h-16z" transform="translate(-304 -401)" fill="currentColor" fill-rule="evenodd"/></symbol><symbol id="icon-arrow-left" viewBox="0 0 18 17"><path d="M17.057 8.383L8.617.04 7.258 1.4l6.04 6.04H.258v1.92H13.3l-6.041 6.042 1.357 1.358z" transform="matrix(-1 0 0 1 18 0)" fill="currentColor"/></symbol><symbol id="icon-arrow-right" viewBox="0 0 18 17"><path d="M17.057 8.383L8.617.04 7.258 1.4l6.04 6.04H.258v1.92H13.3l-6.041 6.042 1.357 1.358z" fill="currentColor"/></symbol><symbol id="icon-arrow-top" viewBox="0 0 18 22"><g fill="none" fill-rule="evenodd"><path fill="#FCF6EB" d="M0 1h1280v489H0z" transform="translate(-1236 -24)"/><path fill="#236192" d="M1170 0h70v70h-70z" transform="translate(-1196 -24)"/><path d="M0 0v3.447h17.705V0H0zm0 13.772h7.128v7.562h3.449v-7.562h7.127L8.852 4.92 0 13.772z" fill="#FFF" fill-rule="nonzero"/></g></symbol><symbol id="icon-briefcase" viewBox="0 0 96 98"><g fill="currentColor"><path d="M51.352 50.743l1.981-4.42V42.82H42.514v3.505l1.981 4.419h6.857zM44.8 45.257h6.248v.762l-1.22 2.59h-3.961l-1.22-2.59v-.762h.153z" transform="translate(0 1)"/><path d="M58.819 23.162H37.181v5.486H19.657v38.095h56.686V28.648H58.819v-5.486zm-19.352 2.286h17.219v3.2h-17.22v-3.2zm34.59 5.333v10.667l-5.028 3.81c-.61.456-1.524.761-2.439.761H55.467v2.286H66.59a6.668 6.668 0 003.81-1.22l3.657-2.742v19.962H21.943V44.343l3.657 2.743a6.668 6.668 0 003.81 1.219h11.123v-2.286H29.41c-.915 0-1.677-.305-2.439-.762l-5.028-3.81V30.782h52.114zM46.781 5.486h2.286v2.286h-2.286zm0-5.334h2.286v2.286h-2.286zM25.057 5.955l1.142 1.98-1.98 1.142-1.142-1.98zm3.815 6.708l-1.98 1.143-1.142-1.979 1.98-1.143zm-16.21 16.211l-1.98-1.143 1.143-1.98 1.98 1.143zM7.963 26.25l-1.98-1.144 1.144-1.98 1.979 1.144zM5.486 46.933h2.286v2.286H5.486zm-5.334 0h2.286v2.286H.152zm11.601 23.38l-1.143-1.98 1.98-1.142 1.143 1.98zM7.176 72.9l-1.143-1.979 1.98-1.143 1.143 1.98zm20.556 12.415l-1.98-1.143 1.144-1.98 1.98 1.144zm-2.624 4.699l-1.98-1.143 1.143-1.98 1.98 1.143zm21.673 3.548h2.286v2.286h-2.286zm0-5.333h2.286v2.286h-2.286zm24.146 1.737l-1.143-1.98 1.98-1.142 1.142 1.98zm-3.81-6.486l1.98-1.143 1.143 1.98-1.98 1.143zm17.055-13.228l-1.979-1.143 1.143-1.98 1.98 1.143zm4.702 2.618l-1.98-1.144 1.143-1.98 1.98 1.144zm4.688-25.937h2.286v2.286h-2.286zm-5.333 0h2.286v2.286h-2.286zm-4.821-18.128l-1.143-1.98 1.98-1.142 1.143 1.98zm5.498-5.725l1.143 1.98-1.98 1.143-1.142-1.98zM68.264 10.54l1.98 1.143-1.143 1.98-1.98-1.143zM70.973 6l1.98 1.143-1.143 1.98-1.98-1.143z" transform="translate(0 1)"/></g></symbol><symbol id="icon-bubble" viewBox="0 0 81 74"><g fill="currentColor" stroke="currentColor" fill-rule="evenodd"><path d="M35.91 1.5C16.936 1.5 1.5 16.936 1.5 35.91c0 18.979 15.436 34.42 34.41 34.42h40.662L65.224 54.833a.75.75 0 01-.032-.838A34.274 34.274 0 0070.33 35.91c0-18.974-15.44-34.41-34.42-34.41m42.141 70.33h-42.14C16.108 71.83 0 55.716 0 35.91 0 16.109 16.108 0 35.91 0c19.806 0 35.92 16.109 35.92 35.91a35.785 35.785 0 01-5.1 18.442l11.925 16.285a.749.749 0 01-.605 1.193" transform="matrix(-1 0 0 1 80 1)"/><path d="M36.174 51.964a.75.75 0 01-.75-.75V30.11a.75.75 0 011.5 0v21.104a.75.75 0 01-.75.75m1.449-29.84a1.45 1.45 0 11-2.9 0 1.45 1.45 0 012.9 0" transform="matrix(-1 0 0 1 80 1)"/></g></symbol><symbol id="icon-certification" viewBox="0 0 82 86"><path d="M61.291.364c-2.705.02-5.111.785-6.935 2.25a1 1 0 00-.156.125L31.302 30.644l-.094.094L.344 58.643l-.062.062a1 1 0 00-.125.937 2.767 2.767 0 00-.063 1.469c.195.799.656 1.53 1.25 2.281 1.098 1.39 2.748 2.84 4.623 4.375-1.111.97-2.323 2.032-3.186 2.781-.732.635-1.329 1.175-1.75 1.531-.172.146-.273.262-.375.344a1 1 0 00-.062.031c-.036.016-.046.022-.063.031-.033.018-.022.025-.03.031l-.032.031c-.3.188-.478.52-.469.875 0 0 .223.333.406.594l-.093.094c3.9 3.655 9.15 7.584 14.057 10 2.454 1.207 4.828 2.035 6.967 2.218 2.139.183 4.16-.355 5.435-1.969a9.524 9.524 0 001-1.562l20.305-24.843c-.04.47-.094.947-.094 1.438 0 2.344.467 4.463 1.281 6.093.815 1.63 2.073 2.906 3.718 2.906 1.644 0 2.903-1.276 3.717-2.906.815-1.63 1.28-3.75 1.28-6.093 0-1.453-.2-2.806-.53-4.032 1.545.66 3.438 1.032 5.53 1.032 2.343 0 4.462-.467 6.09-1.282 1.63-.814 2.906-2.073 2.906-3.718s-1.276-2.935-2.905-3.75c-1.63-.815-3.748-1.25-6.092-1.25-1.904 0-3.658.3-5.123.844L79.66 27.112a1 1 0 00.093-.094c3.7-4.525 3.157-13.32-4.092-20.343a1 1 0 000-.031C71.101 2.338 65.8.328 61.291.362v.002zm-.5 2.062c4.006-.183 9.061 1.5 13.496 5.687 6.68 6.474 6.708 14.197 3.904 17.625l-23.71 21.874a3.627 3.627 0 01-.312-.844c-.26-1.054-.23-2.627.031-4.28.522-3.309 2.009-7.087 3.249-8.688a1 1 0 00-.937-1.625 1 1 0 00-.625.406c-1.646 2.125-3.113 5.961-3.686 9.594a19.21 19.21 0 00-.188 1.781c-1.292-2.507-3.094-4.763-5.248-6.781-3.496-3.277-8.439-5.42-13.245-6.062l22.18-27c.919-.716 2.074-1.238 3.436-1.5.524-.1 1.083-.16 1.655-.187zM31.74 32.925c4.808.29 10.166 2.451 13.652 5.719 2.856 2.677 4.967 5.615 5.997 9.062-1.29-.637-2.865-1.009-4.56-1.188a27.546 27.546 0 00-5.561 0c-1.791.182-3.416.543-4.655 1.063a1 1 0 10.75 1.843c1.867-.783 5.918-1.257 9.247-.906 1.665.176 3.172.539 4.123 1.063.457.251.768.49.969.75l-.5.625c-.797.515-1.447 1.333-1.937 2.312-.018.037-.013.088-.031.125l-20.15 24.593c.112-1.443-.013-2.947-.28-4.469-.066-.396-.13-.787-.219-1.187-.03-.125-.062-.25-.094-.375-.873-3.631-2.75-7.318-5.654-10.125a1.007 1.007 0 00-.062-.062c-.006-.01.005-.026 0-.03l-.032-.032c-.02-.022-.042-.04-.062-.062l-.031-.03c-1.722-1.846-4.165-3.237-6.842-4.188-1.731-.655-3.498-1.106-5.217-1.313a18.052 18.052 0 00-4.56.032l25.71-23.22zm31.24 15.468c2.072 0 3.95.43 5.216 1.063 1.265.633 1.78 1.373 1.78 1.937 0 .564-.515 1.273-1.78 1.906-1.265.633-3.144 1.094-5.217 1.094-2.073 0-3.952-.46-5.217-1.094-1.265-.633-1.78-1.342-1.78-1.906 0-.564.515-1.304 1.78-1.937 1.265-.633 3.144-1.063 5.217-1.063zm-10.06 4a.87.87 0 00.125 0c.556.033 1.263.557 1.874 1.781.633 1.266 1.063 3.145 1.063 5.219 0 2.074-.43 3.922-1.063 5.187-.632 1.266-1.372 1.813-1.936 1.813-.564 0-1.305-.547-1.937-1.813-.633-1.265-1.062-3.113-1.062-5.187 0-1.954.395-3.71.968-4.969l1.5-1.843c.17-.087.316-.179.468-.188zM8.372 58.08c.914.001 1.871.065 2.843.22a21.7 21.7 0 014.249 1.124c-.461.41-1.08.946-1.812 1.594-1.518 1.343-3.495 3.079-5.467 4.812-.262.23-.458.397-.719.625-1.941-1.582-3.604-3.103-4.56-4.312-.494-.625-.792-1.159-.875-1.5-.083-.341-.07-.41.094-.594 1.163-1.303 3.508-1.97 6.247-1.969zm8.779 2.5c4.392 1.977 7.53 6.068 8.996 10.469.191.573.367 1.174.5 1.75.078.35.13.684.188 1.03.604 3.677-.02 7.02-1.437 8.688l-.188.219c-.166.19-.256.435-.25.687-.785.787-1.907 1.071-3.467.938-1.737-.149-3.898-.89-6.217-2.032-4.312-2.122-9.006-5.62-12.683-8.937.413-.351.876-.77 1.5-1.312 1.47-1.276 3.43-3.015 5.404-4.75 1.974-1.735 3.979-3.468 5.498-4.812.76-.673 1.376-1.24 1.843-1.657.174-.154.198-.18.313-.28z" transform="translate(0 -.362)" fill="currentColor"/></symbol><symbol id="icon-close" viewBox="0 0 38 38"><path d="M14 0v12h12v2H14v12h-2V14H0v-2h12V0h2z" fill="currentColor" transform="rotate(45 8.757 23.242)" fill-rule="evenodd" opacity=".9"/></symbol><symbol id="icon-expand" viewBox="0 0 63 63"><defs><filter id="filter-1"><feColorMatrix in="SourceGraphic" values="0 0 0 0 1.000000 0 0 0 0 1.000000 0 0 0 0 1.000000 0 0 0 1.000000 0"/></filter><filter id="filter-2"><feColorMatrix in="SourceGraphic" values="0 0 0 0 1.000000 0 0 0 0 1.000000 0 0 0 0 1.000000 0 0 0 1.000000 0"/></filter></defs><g fill="none" fill-rule="evenodd"><circle fill="#00747A" cx="31.5" cy="31.5" r="31.5"/><g filter="url(#filter-1)"><path d="M14.62 7.185L7.385.035 6.222 1.2 11.4 6.377H.22v1.646H11.4L6.222 13.2l1.163 1.164z" transform="rotate(45 -14.635 59.171)" fill="#000" fill-rule="nonzero"/></g><g filter="url(#filter-2)"><path d="M14.62 7.185L7.385.035 6.222 1.2 11.4 6.377H.22v1.646H11.4L6.222 13.2l1.163 1.164z" transform="rotate(-135 19.331 12.098)" fill="#FFF" fill-rule="nonzero"/></g></g></symbol><symbol id="icon-facebook" viewBox="0 0 1664 1664"><path d="M1264 12v264h-157q-86 0-116 36t-30 108v189h293l-39 296H961v759H655V905H400V609h255V391q0-186 104-288.5T1036 0q147 0 228 12z"/></symbol><symbol id="icon-gift" viewBox="0 0 22 23"><path d="M16.63 3.485A2.96 2.96 0 0010.96 2.3a2.958 2.958 0 10-4.9 3.172H.067v5.623h1.26v11.602h19.265V11.095h1.26V5.472h-5.994a2.945 2.945 0 00.771-1.987zm-4.422 0c0-.806.656-1.462 1.462-1.462.806 0 1.462.656 1.462 1.462 0 .806-.656 1.461-1.462 1.461h-1.462V3.485zm-3.96-1.462c.806 0 1.462.656 1.462 1.462v1.461H8.248a1.463 1.463 0 01-1.461-1.461c0-.806.655-1.462 1.461-1.462zm-.09 19.176H2.824V11.095h5.334v10.104zm4.104 0H9.656V11.095h2.606v10.104zm6.832 0H13.76V11.095h5.334v10.104zm1.26-14.23v2.628H1.564V6.97h18.79z" fill="currentColor"/></symbol><symbol id="icon-info" viewBox="0 0 21 21"><g fill="currentColor"><path d="M10.258 1.641c4.751 0 8.616 3.865 8.616 8.617 0 4.751-3.865 8.616-8.616 8.616-4.752 0-8.617-3.865-8.617-8.616 0-4.752 3.865-8.617 8.617-8.617m0-1.641C4.595 0 0 4.595 0 10.258c0 5.662 4.595 10.258 10.258 10.258 5.662 0 10.258-4.596 10.258-10.258C20.515 4.595 15.92 0 10.258 0z"/><path d="M11.242 15.387H9.273V9.683h1.97z"/><circle cx="10.258" cy="6.261" r="1.518"/></g></symbol><symbol id="icon-instagram" viewBox="0 0 1536 1536"><path d="M1024 768q0-106-75-181t-181-75-181 75-75 181 75 181 181 75 181-75 75-181zm138 0q0 164-115 279t-279 115-279-115-115-279 115-279 279-115 279 115 115 279zm108-410q0 38-27 65t-65 27-65-27-27-65 27-65 65-27 65 27 27 65zM768 138q-7 0-76.5-.5t-105.5 0-96.5 3-103 10T315 169q-50 20-88 58t-58 88q-11 29-18.5 71.5t-10 103-3 96.5 0 105.5.5 76.5-.5 76.5 0 105.5 3 96.5 10 103T169 1221q20 50 58 88t88 58q29 11 71.5 18.5t103 10 96.5 3 105.5 0 76.5-.5 76.5.5 105.5 0 96.5-3 103-10 71.5-18.5q50-20 88-58t58-88q11-29 18.5-71.5t10-103 3-96.5 0-105.5-.5-76.5.5-76.5 0-105.5-3-96.5-10-103T1367 315q-20-50-58-88t-88-58q-29-11-71.5-18.5t-103-10-96.5-3-105.5 0-76.5.5zm768 630q0 229-5 317-10 208-124 322t-322 124q-88 5-317 5t-317-5q-208-10-322-124T5 1085q-5-88-5-317t5-317q10-208 124-322T451 5q88-5 317-5t317 5q208 10 322 124t124 322q5 88 5 317z" fill="currentColor"/></symbol><symbol id="icon-laptop" viewBox="0 0 57 41"><path d="M7.953.24A3.298 3.298 0 004.64 3.566v27.928H.539a.687.687 0 00-.54.665v2.66c0 3.003 2.338 5.319 5.303 5.319h46.396c2.965 0 5.302-2.316 5.302-5.32v-2.66a.69.69 0 00-.663-.664H52.36V3.565A3.298 3.298 0 0049.047.241H7.953zm0 1.33h41.094c1.181 0 1.988.802 1.988 1.995v27.928H5.965V3.565c0-1.193.807-1.994 1.988-1.994zm3.977 3.325c-.639 0-1.287.172-1.802.624-.515.452-.849 1.185-.849 2.036v9.31a.69.69 0 00.663.674.69.69 0 00.663-.675V7.555c0-.54.168-.82.393-1.018.225-.198.554-.312.932-.312h3.977a.69.69 0 00.672-.665.69.69 0 00-.672-.665H11.93zM1.326 32.823h54.348v1.994c0 2.335-1.675 3.99-3.976 3.99H5.302c-2.3 0-3.976-1.655-3.976-3.99v-1.994z" fill="currentColor"/></symbol><symbol id="icon-linkedin" viewBox="0 0 24 24"><path d="M19 0H5a5 5 0 00-5 5v14a5 5 0 005 5h14a5 5 0 005-5V5a5 5 0 00-5-5zM8 19H5V8h3v11zM6.5 6.732c-.966 0-1.75-.79-1.75-1.764s.784-1.764 1.75-1.764 1.75.79 1.75 1.764-.783 1.764-1.75 1.764zM20 19h-3v-5.604c0-3.368-4-3.113-4 0V19h-3V8h3v1.765c1.396-2.586 7-2.777 7 2.476V19z"/></symbol><symbol id="icon-location-pin" viewBox="0 0 512 512"><path d="M256 0C153.755 0 70.573 83.182 70.573 185.426c0 126.888 165.939 313.167 173.004 321.035 6.636 7.391 18.222 7.378 24.846 0 7.065-7.868 173.004-194.147 173.004-321.035C441.425 83.182 358.244 0 256 0zm0 278.719c-51.442 0-93.292-41.851-93.292-93.293S204.559 92.134 256 92.134s93.291 41.851 93.291 93.293-41.85 93.292-93.291 93.292z"/></symbol><symbol id="icon-map" viewBox="0 0 24 21"><path d="M16.465 0l-8.98 4.49L0 0v16.465l7.484 4.49 8.98-4.49 7.485 4.49V4.49L16.465 0zM8.232 5.79l7.485-3.742v13.117l-7.485 3.742V5.79zM1.497 2.643l5.217 3.13.022.014v12.974l-5.24-3.144V2.643zM22.452 18.31l-5.217-3.13-.022-.013V2.196l5.24 3.142v12.973z" fill="currentColor"/></symbol><symbol id="icon-map2" viewBox="0 0 51 45"><path d="M12.125.217a.583.583 0 00-.182.073L.29 7.28a.583.583 0 00-.29.51v34.949a.583.583 0 00.874.491l11.36-6.826 12.543 6.844c.171.09.376.09.547 0l12.543-6.844 11.36 6.826a.583.583 0 00.874-.491V7.789a.583.583 0 00-.291-.51L38.158.29a.583.583 0 00-.564-.018L25.05 7.116 12.507.272a.583.583 0 00-.382-.055zm.692 1.548l11.65 6.37v33.62l-11.65-6.37V1.765zm24.467 0v33.62l-11.65 6.37V8.136l11.65-6.37zM11.651 1.8v33.62L1.165 41.7V8.1l10.486-6.298zm26.799 0l10.486 6.298V41.7L38.45 35.42V1.801z" transform="translate(0 .372)" fill="currentColor"/></symbol><symbol id="icon-menu" viewBox="0 0 26 19"><path fill="currentColor" d="M0 16h26v3H0v-3zm0-8h26v3H0V8zm0-8h26v3H0V0z"/></symbol><symbol id="icon-pause" viewBox="0 0 62 62"><g fill="none" fill-rule="evenodd"><rect fill="#00747A" fill-rule="nonzero" width="62" height="62" rx="31"/><path d="M26.5 23.283v16.434m9-16.434v16.434" stroke="#FFF" stroke-linecap="square" stroke-width="4"/></g></symbol><symbol id="icon-pencil" viewBox="0 0 22 22"><g fill="currentColor"><path d="M13.974 21.214c-.34 0-.763-.423-2.583-2.244l-4.404-4.404L0 7.58l.55-.55L6.944.592 7.537 0l13.635 13.635v7.537h-7.071c-.043.042-.085.042-.127.042zm.296-1.609h5.251v-5.293L7.537 2.287 2.244 7.58C5.76 11.052 12.957 18.25 14.27 19.605z" transform="matrix(-1 0 0 1 22 0)"/><path d="M10.849 4.017l1.137 1.138-6.768 6.766-1.137-1.138zm8.789 8.833l1.133 1.142-7.035 6.978-1.133-1.143z" transform="matrix(-1 0 0 1 22 0)"/></g></symbol><symbol id="icon-play-alt" viewBox="0 0 12 15"><path d="M12 7.5L0 15V0z"/></symbol><symbol id="icon-play" viewBox="0 0 56 55"><g transform="translate(.5)" fill="none" fill-rule="evenodd"><rect fill="#00747A" width="55" height="55" rx="27.5"/><path fill="#FFF" fill-rule="nonzero" d="M24 34.438l11.64-6.72L24 21z"/></g></symbol><symbol id="icon-plus" viewBox="0 0 26 26"><defs><filter id="filter-1"><feColorMatrix in="SourceGraphic" values="0 0 0 0 0.294118 0 0 0 0 0.188235 0 0 0 0 0.415686 0 0 0 1.000000 0"/></filter></defs><g transform="translate(-265 -13)" filter="url(#filter-1)" fill="none" fill-rule="evenodd" opacity=".9"><path d="M9.692 0v8.307H18v1.385H9.692V18H8.308l-.001-8.308H0V8.308l8.307-.001V0h1.385z" fill="#00747A" transform="rotate(45 123 342.161)"/></g></symbol><symbol id="icon-pointer-top" viewBox="0 0 58 58"><g transform="rotate(90 29 29)" fill="none" fill-rule="evenodd"><circle fill="#00747A" transform="matrix(-1 0 0 1 58 0)" cx="29" cy="29" r="29"/><path fill="#FFF" fill-rule="nonzero" d="M21.084 29.734l7.756 7.786 1.247-1.268-5.55-5.638H36.52V28.82H24.537l5.55-5.638-1.247-1.267z"/></g></symbol><symbol id="icon-quote" viewBox="0 0 48 36"><path d="M504 1475c-14.227-1.054-22-9.79-22-21.992 0-8.134 4.107-14.008 11.147-14.008 5.72 0 10.413 4.067 10.413 10.243 0 5.422-3.373 8.585-7.627 9.49h-5.426c.586 6.777 5.426 10.844 13.493 12.2V1475zm-26 0c-14.373-1.054-22-9.79-22-21.992 0-8.134 4.107-14.008 11.147-14.008 5.72 0 10.266 4.067 10.266 10.243 0 5.422-3.373 8.585-7.626 9.49h-5.427c.733 6.777 5.427 10.844 13.64 12.2V1475z" transform="translate(-456 -1439)" fill="currentColor" fill-rule="evenodd"/></symbol><symbol id="icon-search" viewBox="0 0 25.5 25.5"><path fill="currentColor" d="M19.1 17.3c1.5-1.9 2.3-4.2 2.3-6.6C21.4 4.8 16.6 0 10.7 0S0 4.8 0 10.7s4.8 10.7 10.7 10.7c2.4 0 4.7-.8 6.6-2.3l6.4 6.4 1.8-1.8-6.4-6.4zm-8.4 1.5c-4.5 0-8.1-3.6-8.1-8.1s3.6-8.1 8.1-8.1 8.1 3.6 8.1 8.1-3.7 8.1-8.1 8.1z"/></symbol><symbol id="icon-slider-arrow-left" viewBox="0 0 60 60"><path d="M30 0c16.569 0 30 13.431 30 30 0 16.569-13.431 30-30 30C13.431 60 0 46.569 0 30 0 13.431 13.431 0 30 0zm-.384 22.041L28.26 23.4l6.04 6.04H21.258v1.92H34.3l-6.041 6.042 1.357 1.358 8.441-8.376-8.44-8.342z" transform="matrix(-1 0 0 1 60 0)" fill="#4B306A" fill-rule="evenodd"/></symbol><symbol id="icon-slider-arrow-right" viewBox="0 0 60 60"><path d="M30 0c16.569 0 30 13.431 30 30 0 16.569-13.431 30-30 30C13.431 60 0 46.569 0 30 0 13.431 13.431 0 30 0zm-.384 22.041L28.26 23.4l6.04 6.04H21.258v1.92H34.3l-6.041 6.042 1.357 1.358 8.441-8.376-8.44-8.342z" fill="#4B306A" fill-rule="evenodd"/></symbol><symbol id="icon-twitter" viewBox="0 0 1576 1576"><path d="M1576 300q-67 98-162 167 1 14 1 42 0 130-38 259.5T1261.5 1017 1077 1227.5t-258 146-323 54.5q-271 0-496-145 35 4 78 4 225 0 401-138-105-2-188-64.5T177 925q33 5 61 5 43 0 85-11-112-23-185.5-111.5T64 602v-4q68 38 146 41-66-44-105-115T66 370q0-88 44-163 121 149 294.5 238.5T776 545q-8-38-8-74 0-134 94.5-228.5T1091 148q140 0 236 102 109-21 205-78-37 115-142 178 93-10 186-50z"/></symbol><symbol id="icon-virtual" viewBox="0 0 51 46"><path d="M25.194.163C11.407.163.14 7.582.14 16.75v14.626c0 5.389 3.92 10.428 10.568 13.577.07.07.21.07.28.07.07 0 .14 0 .21-.07h.07c.07 0 .14-.07.14-.07l.07-.07c.07-.07.07-.14.14-.21V29.557c0-.07-.07-.07-.07-.14s-.07-.07-.07-.14c-.07-.07-.07-.07-.14-.07l-.07-.07c-2.8-1.33-5.11-3.01-6.789-4.97 3.5-4.128 9.798-6.998 16.936-7.697.84.84 1.89 1.4 3.08 1.61v4.968h-6.3c-.42 0-.699.28-.699.7 0 .42.28.7.7.7h6.298v5.319l-6.788 6.788c-.28.28-.28.7 0 .98.14.14.35.21.49.21s.35-.07.49-.21l6.508-6.509 6.509 6.509c.14.14.35.21.49.21s.35-.07.49-.21c.28-.28.28-.7 0-.98l-6.789-6.858v-5.32h6.299c.42 0 .7-.28.7-.7 0-.419-.28-.699-.7-.699h-6.299V18.01c1.19-.14 2.31-.77 3.08-1.61 7.138.77 13.436 3.57 16.936 7.699-1.68 1.96-3.99 3.639-6.789 4.969l-.07.07c-.07 0-.07.07-.14.07 0 0-.07.07-.07.14s-.07.07-.07.14v15.115c0 .07.07.14.14.21l.07.07c.07.07.07.07.14.07h.07c.07 0 .14.07.21.07.07 0 .21 0 .28-.07 6.578-3.08 10.568-8.188 10.568-13.577V16.82C50.249 7.652 38.98.163 25.194.163zM10.288 30.186v13.087c-5.53-2.869-8.748-7.208-8.748-11.827v-9.168c.42.77.91 1.54 1.47 2.24 1.749 2.24 4.268 4.199 7.278 5.668zM25.194 16.68c-2.1 0-3.849-1.75-3.849-3.85s1.75-3.849 3.85-3.849c2.099 0 3.848 1.75 3.848 3.85 0 2.099-1.75 3.849-3.849 3.849zm4.69-1.54c.35-.7.559-1.47.559-2.31 0-2.869-2.38-5.248-5.249-5.248-2.87 0-5.249 2.38-5.249 5.248 0 .84.21 1.61.56 2.31-7.068.91-13.227 3.779-16.936 7.908-1.33-1.96-2.03-4.059-2.03-6.159 0-8.398 10.638-15.256 23.655-15.256 13.017 0 23.655 6.858 23.655 15.256 0 2.17-.7 4.27-2.03 6.16-3.639-4.13-9.867-7.07-16.936-7.91zM40.1 43.203V30.186c3.01-1.47 5.529-3.429 7.278-5.598.56-.7 1.05-1.47 1.47-2.24v9.168c0 4.48-3.22 8.818-8.748 11.687z" fill="currentColor" fill-rule="evenodd"/></symbol><symbol id="icon-youtube" viewBox="0 0 1792 1792"><path d="M1280 896q0-37-30-54L738 522q-31-20-65-2-33 18-33 56v640q0 38 33 56 16 8 31 8 20 0 34-10l512-320q30-17 30-54zm512 0q0 96-1 150t-8.5 136.5T1760 1330q-16 73-69 123t-124 58q-222 25-671 25t-671-25q-71-8-124.5-58T31 1330q-14-65-21.5-147.5T1 1046 0 896t1-150 8.5-136.5T32 462q16-73 69-123t124-58q222-25 671-25t671 25q71 8 124.5 58t69.5 123q14 65 21.5 147.5T1791 746t1 150z"/></symbol><symbol id="logo-large" viewBox="0 0 102 127"><g fill="#FFC845"><path d="M24.619 34.138C22.96 34.138 22.47 33 22.47 33h-1.542v3.572c.079.913-.764.913-.686 0V33h-1.996s-.493 1.138-2.15 1.138c-.498 0-1.112-.148-1.227.381-.192.895 1.613 1.901 2.84 2.13 1.229.226 1.078 2.199 2.8 2.351 1.881-.226 1.269-2.125 2.494-2.352a7.092 7.092 0 001.792-.651l.006.007c.616-.417 1.14-1.026 1.042-1.485-.116-.53-.73-.381-1.225-.381M15.856 31h9v-1h-9zm0 2h9v-1h-9z"/><path d="M28.656 24.47c.828 1.126.234 2.666.997 3.042.917.456 2.48-.244 3.783-3.182.144-.325.302-.696.378-1.025.2-1.543-.322-3.402-1.298-4.36-1.069-1.047-3.593-1.154-4.647-.662-2.336 1.095-2.651 2.067-3.368 3.18-.305.467-.638 1.154-.927 1.867-.171.427-.65 3.362-.718 6.67l1.762-.01c.223-3.843 1.443-4.971 1.443-4.971.611-1.03 2.081-1.246 2.595-.55M16.097 30h1.76c-.08-3.312-.574-6.257-.749-6.682-.291-.717-.566-1.446-.929-1.872-.802-.923-1.04-2.08-3.38-3.169-1.053-.49-3.574-.371-4.643.686-.428.422-.828 1.047-1.06 1.644-.343 1.055-.343 2.609.162 3.753 1.316 2.945 3.276 3.461 3.876 3.253.879-.308.078-2.007.909-3.137.504-.694 1.973-.484 2.586.543 0 0 1.229 1.127 1.468 4.981"/><path d="M18.373 29.775h1.156l-.074-20.53c0-1.319.938-1.245.86-.003l.01 20.532 1.078-.006c.052-4.338.578-8.059 1.044-10.358.413-2.048 2.2-4.014 2.102-6.165-.07-1.624-1.077-3.302-1.62-3.98-.74-.911-1.985-3.944-3-3.9-.875-.035-2.38 2.86-3.096 3.757-.542.684-1.621 2.52-1.69 4.146-.077 2.153 1.717 4.107 2.14 6.156.471 2.295 1.017 6.011 1.09 10.351" transform="translate(.856)"/><path d="M.594.054l-.037 3.93C.006 64.4-.3 97.682 49.528 125.845l.947.54.946-.54c48.687-27.756 48.763-55.995 48.928-117.87l.024-7.92H.594zm36.901 3.863h12.662l-.075 55.63L37.367 45.04l.128-41.122zm-33.092.102v-.102h28.85l-.023 28.47-.015-.055-.02 8.476-7.834.005.003.013-20.71-.016c-.486-11.027-.375-23.202-.251-36.791zm15.186 91.437C12.196 84.975 8.31 73.245 6.313 59.54l43.78.093-30.504 35.822zm30.88 26.484c-.071-.043-.138-.08-.209-.12l-.142-62.211 31.107 36.498c-6.774 9.33-16.57 17.634-30.757 25.833zM96.504 7.966c-.055 20.602-.101 37.368-1.99 51.582-14.078.291-44.323.139-44.323.139L96.514 4.92l-.009 3.046z" transform="translate(.856)"/></g></symbol><symbol id="logo" viewBox="0 0 313.97 42.3"><path data-name="Fill-1" d="M71.26 24.46a10.92 10.92 0 00-1 3.38c0 2 1.87 2.09 3.38 2.21v1.45c-1.71 0-3.42-.12-5.13-.16-1.54 0-3.09.12-4.63.16v-1.45c3.33 0 4.51-3.9 5.57-6.4L77.52 4.5h2l8.37 20.68a14.63 14.63 0 002.08 3.91 5.1 5.1 0 002.77 1v1.41c-2.45 0-4.89-.12-7.33-.16-2.11 0-4.27.12-6.38.16v-1.45c1.22-.16 3.37-.08 3.37-1.81a10.74 10.74 0 00-.77-2.66l-.87-2.29h-9zm8.66-3.18L76.34 12l-3.82 9.25z" fill="#462b5a" fill-rule="evenodd"/><path data-name="Fill-2" d="M92.9 10.39c0-2.15.08-3.14-2.58-3.38V5.69l7.86-1.19v22c0 2.59-.25 3.59 2.62 3.71v1.29c-1.7 0-3.39-.12-5.12-.16-1.9 0-3.79.12-5.68.16v-1.27c3.06-.08 2.9-.92 2.9-3.71V10.39" fill="#462b5a" fill-rule="evenodd"/><path data-name="Fill-3" d="M103.97 32.4h-.67V10.56c0-2.22.16-3.27-2.5-3.52V5.71l7.7-1.21v11.83a7 7 0 014.69-2.3c4.89 0 8.31 4.28 8.31 9.08a8.87 8.87 0 01-8.86 9.21 8 8 0 01-5.25-2zm4.61-6.06c0 2.39.48 4.12 3.18 4.12 3.5 0 4-4.4 4-7.06s-.68-6.75-4.14-6.75a3.06 3.06 0 00-2.5 1.3 5.38 5.38 0 00-.52 2.5v5.89z" fill="#462b5a" fill-rule="evenodd"/><path data-name="Fill-4" d="M129.88 26.52a7.69 7.69 0 00.38 3 2.59 2.59 0 002 .72v1.26c-1.54 0-3.11-.12-4.72-.16s-3.42.12-5.15.16v-1.27a2.59 2.59 0 002-.72 7.69 7.69 0 00.38-3v-6.88c0-2.39-.42-3.26-2.45-3.22v-1.32a44.73 44.73 0 007.48-1.19zm-5.87-19a3 3 0 012.91-3 2.88 2.88 0 012.84 3 2.9 2.9 0 01-3 2.94 3 3 0 01-2.8-2.94z" fill="#462b5a" fill-rule="evenodd"/><path data-name="Fill-5" d="M153 22.44c0 5.28-4.46 9.06-9.7 9.06-5.4 0-10.1-3.58-10.1-9.1 0-5.24 4.9-8.9 10-8.9 5.23 0 9.82 3.62 9.82 8.94m-13.87-.08c0 2.94.28 7.55 4.37 7.55 3.44 0 3.56-5 3.56-7.31 0-2.66-.12-7.51-3.84-7.51s-4.09 4.65-4.09 7.27" fill="#462b5a" fill-rule="evenodd"/><path data-name="Fill-6" d="M160.76 26.41a8.42 8.42 0 00.36 3.05 2.65 2.65 0 002.08.74v1.3c-1.69 0-3.34-.12-5-.16s-3.35.12-5 .16v-1.3a2.66 2.66 0 002.09-.74 8.42 8.42 0 00.36-3.05v-5.82c0-2.2 0-4.16-2.56-4.16v-1.34a25.36 25.36 0 007.25-1.59l.43 3.66c1.46-2.11 3.27-3.66 5.84-3.66a5.89 5.89 0 014.69 2.12c1 1.34.94 3.74.94 5.41v5.38a8.42 8.42 0 00.36 3.05 2.66 2.66 0 002.09.74v1.3c-1.54 0-3.08-.12-4.62-.16-1.81 0-3.66.12-5.47.16v-1.38c.63 0 1.65-.05 2.08-.66s.4-2.36.4-3.05v-5.09c0-1.92.12-5.17-2.52-5.17a3.78 3.78 0 00-3.24 2.52 10.93 10.93 0 00-.51 4.24v3.5" fill="#462b5a" fill-rule="evenodd"/><path data-name="Fill-7" d="M210.96 28.57a12.5 12.5 0 01-8.61 2.93c-7.84 0-13.35-5.07-13.35-13 0-8.12 5.78-14 13.87-14a11.38 11.38 0 017.49 2.5l.6-2.26h1.7l.36 8.31h-1.75c-.83-3.8-3.41-6.57-7.49-6.57-6.14 0-7.93 6.53-7.93 11.56 0 5.42 1.87 11.4 8.17 11.48 4.56.08 7-3.4 7.69-7.56h1.59v8.91h-1.54l-.75-2.3" fill="#462b5a" fill-rule="evenodd"/><path data-name="Fill-8" d="M234.9 22.44c0 5.28-4.46 9.06-9.7 9.06-5.4 0-10.1-3.58-10.1-9.1 0-5.24 4.9-8.9 10-8.9 5.23 0 9.82 3.62 9.82 8.94m-13.87-.08c0 2.94.28 7.55 4.37 7.55 3.44 0 3.56-5 3.56-7.31 0-2.66-.12-7.51-3.84-7.51s-4.09 4.65-4.09 7.27" fill="#462b5a" fill-rule="evenodd"/><path data-name="Fill-9" d="M237.76 10.39c0-2.15.08-3.14-2.58-3.38V5.69l7.86-1.19v22c0 2.59-.24 3.59 2.62 3.71v1.29c-1.7 0-3.39-.12-5.12-.16-1.9 0-3.79.12-5.68.16v-1.27c3.06-.08 2.9-.92 2.9-3.71V10.39" fill="#462b5a" fill-rule="evenodd"/><path data-name="Fill-10" d="M248.6 10.39c0-2.15.08-3.14-2.58-3.38V5.69l7.86-1.19v22c0 2.59-.24 3.59 2.62 3.71v1.29c-1.7 0-3.39-.12-5.12-.16-1.9 0-3.79.12-5.68.16v-1.27c3.06-.08 2.9-.92 2.9-3.71V10.39" fill="#462b5a" fill-rule="evenodd"/><path data-name="Fill-11" d="M263.25 22.21c-.08 3.53 1 7.54 5.26 7.54 2.29 0 3.37-1.13 4.9-2.69l1.24 1a8.8 8.8 0 01-7.67 3.94c-5.26 0-9.31-3.33-9.55-8.78s4-9.38 9.47-9.38c4.3 0 8.15 2.92 8.15 7.42 0 1.12-.64 1-1.6 1zm5.38-1.61c.84 0 1.16-.28 1.16-1.12 0-1.84-1.12-4.05-3.21-4.05-2.45 0-3.21 3.05-3.29 5.17z" fill="#462b5a" fill-rule="evenodd"/><path data-name="Fill-13" d="M294.29 13.59a2.18 2.18 0 012.45 2 1.71 1.71 0 01-1.77 1.77c-1.24 0-1.68-1.41-2.73-1.41a.75.75 0 00-.76.44 5.75 5.75 0 01-.92 8.47 11.12 11.12 0 01-5.87 1.44c-1.2.08-3.21 0-3.21 1.68s3.42 1.37 4.46 1.37c4.34 0 9.23.64 9.23 6.13 0 5.26-5.46 6.78-9.71 6.78-3 0-8.64-.76-8.64-4.77a2.76 2.76 0 012.73-2.73c.48 0 1.77.36 1.77 1 0 .2-.28.36-.4.48a1.37 1.37 0 00-.6 1.29c0 2.48 3.09 3.17 5 3.17 2.28 0 6-.73 6-3.73s-3.74-2.89-5.94-2.89c-3.1 0-7.75 0-7.75-4.25a4.4 4.4 0 013.85-4.09v-.08a5.43 5.43 0 01-4.1-5.3c0-4.41 3.78-6.53 7.76-6.53a8.35 8.35 0 015.14 1.48 5.92 5.92 0 014-1.72m-11.6 6.81c0 1.65.28 4.21 2.52 4.33s2.46-2.72 2.46-4.29-.17-5-2.46-5c-2.48 0-2.52 3.13-2.52 5" fill="#462b5a" fill-rule="evenodd"/><path data-name="Fill-14" d="M302.16 22.21c-.08 3.53 1 7.54 5.26 7.54 2.29 0 3.38-1.13 4.9-2.69l1.25 1A8.82 8.82 0 01305.9 32c-5.26 0-9.32-3.33-9.56-8.78s4-9.38 9.48-9.38c4.3 0 8.15 2.92 8.15 7.42 0 1.12-.64 1-1.61 1zm5.38-1.61c.85 0 1.17-.28 1.17-1.12 0-1.84-1.13-4.05-3.21-4.05-2.45 0-3.22 3.05-3.3 5.17z" fill="#462b5a" fill-rule="evenodd"/><path data-name="Fill-15" d="M.04 0v1.2c-.19 19.27-.28 29.89 15.72 38.87l.27.16.28-.16c15.62-8.85 15.65-17.86 15.7-37.6V0H.04" fill="#f7c34c" fill-rule="evenodd"/><path data-name="Fill-16" d="M.04 0v1.2c-.19 19.27-.28 29.89 15.72 38.87l.27.16.28-.16c15.62-8.85 15.65-17.86 15.7-37.6V0zm16 18.78s10.07 0 14.27-.05c-.6 4.64-1.79 8.42-4.21 11.79L15.97 18.76l.05 20.18a29.86 29.86 0 01-10-8.54l10-11.63-14.26-.04c-.26-1.82-.41-3.76-.5-5.82h9.45V1.12h1.33v13.1l4 4.52V1.12h14.9v.16zM6.95 11a2.1 2.1 0 01-.56.2c-.38.08-.19.68-.78.75s-.5-.67-.88-.75-1-.39-.9-.67.23-.12.39-.12a.71.71 0 00.68-.36h.62v1.13c0 .29.24.29.22 0v-1.1h.48a.71.71 0 00.68.36c.16 0 .35 0 .38.12s-.13.34-.32.47zm-.4-8.47a2.42 2.42 0 01.51 1.27c0 .67-.53 1.28-.66 1.92a17.61 17.61 0 00-.33 3.22h-.31V2.55c0-.38-.27-.41-.27 0v6.38h-.37a17.56 17.56 0 00-.36-3.21c-.13-.63-.69-1.24-.67-1.91a2.58 2.58 0 01.53-1.29c.23-.28.7-1.18 1-1.17s.71.93.94 1.21zM1.56 6a1.4 1.4 0 01.33-.52 1.45 1.45 0 011.39-.21 2.28 2.28 0 011 1 2.09 2.09 0 01.28.58 9.62 9.62 0 01.23 2.09h-.51a2.48 2.48 0 00-.44-1.56c-.19-.32-.63-.38-.78-.17-.25.36 0 .89-.28 1s-.77-.1-1.17-1A1.89 1.89 0 011.56 6zm2.72 3.43h2.65v-.29H4.28zm0 .5h2.65v-.29H4.28zm3.07-2.55s-.37.35-.43 1.56h-.54a10.58 10.58 0 01.22-2.09 4.72 4.72 0 01.28-.59 1.94 1.94 0 011-1 1.5 1.5 0 011.4.2 1.82 1.82 0 01.39 1.37 2.08 2.08 0 01-.12.32c-.39.92-.86 1.14-1.14 1s-.05-.6-.3-1-.6-.16-.78.17z" fill="#462b5a" fill-rule="evenodd"/></symbol><symbol id="pin-logo" viewBox="0 0 71 91"><g fill="none" fill-rule="evenodd"><path d="M.17 0L.142 2.754c-.386 42.323-.6 65.639 34.307 85.368l.663.378.663-.378C69.884 68.678 69.937 48.895 70.052 5.55L70.07 0H.17z" transform="translate(0 1)" fill="#4B306A"/><path d="M21.563 33.42c-.846 0-1.096-.58-1.096-.58h-.787v1.823c.04.466-.39.466-.35 0V32.84h-1.018s-.252.58-1.098.58c-.254 0-.567-.075-.626.195-.098.457.823.97 1.449 1.087.627.116.55 1.122 1.43 1.2.96-.116.647-1.084 1.272-1.2.25-.048.653-.188.914-.333l.003.004c.315-.213.583-.524.532-.758-.059-.27-.372-.194-.625-.194m-4.472-1.601h4.593v-.511h-4.593zm0 1.02h4.593v-.51h-4.593zm6.532-4.353c.422.575.12 1.36.51 1.552.467.233 1.264-.124 1.93-1.623.073-.166.154-.356.192-.523.102-.788-.164-1.736-.662-2.225-.545-.534-1.833-.59-2.372-.338-1.192.559-1.352 1.054-1.718 1.622a5.944 5.944 0 00-.473.954c-.087.217-.332 1.715-.366 3.403l.898-.005c.114-1.961.737-2.537.737-2.537.312-.526 1.062-.636 1.324-.28m-6.409 2.822h.898c-.04-1.69-.293-3.193-.382-3.41-.148-.366-.289-.738-.474-.955-.409-.471-.53-1.062-1.725-1.617-.537-.25-1.823-.19-2.369.35a2.537 2.537 0 00-.54.839c-.176.538-.176 1.331.082 1.915.671 1.503 1.671 1.766 1.978 1.66.448-.157.04-1.024.463-1.6.258-.355 1.007-.248 1.32.276 0 0 .627.575.75 2.542" fill="#F7C34C" transform="translate(0 .75)"/><g fill="#F7C34C"><path d="M8.865 15.194h.59L9.418 4.718c0-.673.478-.636.439-.002l.004 10.477.55-.003c.027-2.213.295-4.112.533-5.285.211-1.045 1.123-2.048 1.073-3.146-.036-.83-.55-1.685-.827-2.03-.377-.466-1.013-2.014-1.531-1.992-.446-.017-1.214 1.46-1.58 1.918-.276.349-.827 1.286-.862 2.116-.04 1.098.876 2.096 1.093 3.141.24 1.171.518 3.068.555 5.282" transform="translate(9.437 16.75)"/><path d="M.303.027L.284 2.033c-.281 30.83-.437 47.814 24.99 62.185l.484.275.482-.275C51.085 50.054 51.124 35.644 51.208 4.07L51.22.027H.303zM19.133 2h6.462l-.038 28.388-6.488-7.404L19.134 2zm-16.885.05v-.052H16.97l-.012 14.528-.008-.028-.01 4.325-3.997.003.001.006-10.568-.008c-.248-5.626-.191-11.84-.128-18.774zm7.75 46.66C6.222 43.363 4.24 37.377 3.22 30.384l22.341.047-15.566 18.28zm15.757 13.515l-.106-.062-.073-31.746L41.45 49.042c-3.456 4.761-8.456 8.999-15.695 13.183zm23.493-58.16c-.028 10.512-.052 19.068-1.016 26.321-7.184.149-22.618.071-22.618.071L49.251 2.511l-.004 1.554z" transform="translate(9.437 16.75)"/></g></g></symbol><symbol id="time" viewBox="0 0 438.533 438.533"><path d="M409.133 109.203c-19.608-33.592-46.205-60.189-79.798-79.796C295.736 9.801 259.058 0 219.273 0c-39.781 0-76.47 9.801-110.063 29.407-33.595 19.604-60.192 46.201-79.8 79.796C9.801 142.8 0 179.489 0 219.267c0 39.78 9.804 76.463 29.407 110.062 19.607 33.592 46.204 60.189 79.799 79.798 33.597 19.605 70.283 29.407 110.063 29.407s76.47-9.802 110.065-29.407c33.593-19.602 60.189-46.206 79.795-79.798 19.603-33.596 29.403-70.284 29.403-110.062.001-39.782-9.8-76.472-29.399-110.064zm-55.391 188.005c-13.894 23.791-32.736 42.64-56.527 56.534-23.791 13.894-49.771 20.834-77.945 20.834-28.167 0-54.149-6.94-77.943-20.834-23.791-13.895-42.633-32.743-56.527-56.534-13.897-23.791-20.843-49.772-20.843-77.941 0-28.171 6.949-54.152 20.843-77.943 13.891-23.791 32.738-42.637 56.527-56.53 23.791-13.895 49.772-20.84 77.943-20.84 28.173 0 54.154 6.945 77.945 20.84 23.791 13.894 42.634 32.739 56.527 56.53 13.895 23.791 20.838 49.772 20.838 77.943 0 28.169-6.943 54.15-20.838 77.941z"/><path d="M246.68 109.631h-18.274c-2.669 0-4.853.859-6.57 2.57-1.706 1.713-2.565 3.9-2.565 6.565v100.5h-63.953c-2.667 0-4.853.855-6.567 2.564-1.712 1.712-2.568 3.901-2.568 6.571v18.271c0 2.666.856 4.856 2.568 6.567 1.715 1.711 3.905 2.566 6.567 2.566h91.367c2.662 0 4.853-.855 6.561-2.566 1.711-1.711 2.573-3.901 2.573-6.567V118.766c0-2.663-.862-4.849-2.573-6.565-1.71-1.711-3.9-2.57-6.566-2.57z"/></symbol><symbol id="tpc-logo" viewBox="0 0 154.78 45.91"><g data-name="Layer 2"><path class="cls-1" d="M57.13.77v10.57h-.88V.77H52.4V0H61v.77h-3.87M70 11.34V6h-6.52v5.38h-.86V0h.86v5.18H70V0h.87v11.34H70m3.58 0V0H80v.77h-5.57V5.2h5V6h-5v4.58H80v.79h-6.4m-17.89 6.52a12.45 12.45 0 00-1.56.11v5.73c.4 0 1 .1 1.42.1 2.27 0 3.47-1.28 3.47-3.06-.04-1.52-1.14-2.88-3.33-2.88zm-.17 6.7a12.33 12.33 0 01-1.39-.09v4h-.87V17.27a18.11 18.11 0 012.33-.15c2.92 0 4.36 1.67 4.36 3.61 0 2.27-1.65 3.86-4.43 3.86zM69 28.54v-5.39h-6.48v5.39h-.86V17.2h.86v5.18H69V17.2h.86v11.34H69m3.6 0h.87V17.2h-.87zm3.58 0V17.2h.86v10.55h5.56v.79h-6.39m12.45-9.77l-2.33 5.56H91l-2.33-5.55zm4.13 9.77l-1.47-3.47H86l-1.45 3.47h-.91L88.6 17h.15l5 11.53zm5.29-10.69a12.18 12.18 0 00-1.9.12v9.8a14 14 0 002 .12c3.61 0 5.43-2.24 5.43-5.12 0-2.71-1.93-4.92-5.5-4.92zm0 10.8a20.9 20.9 0 01-2.81-.19V17.27a21 21 0 012.75-.18c4.22 0 6.45 2.77 6.45 5.68 0 3.12-2.18 5.88-6.39 5.88zm8.56-.11V17.2h6.4v.8h-5.53v4.4h5v.77h-5v4.58h5.53v.79h-6.4m8.29 0V17.2h.86v10.55h5.53v.79H115m10.34-10.65a12.45 12.45 0 00-1.56.11v5.73c.4 0 1 .1 1.42.1 2.27 0 3.48-1.28 3.48-3.06-.03-1.52-1.18-2.88-3.37-2.88zm-.17 6.7a12.33 12.33 0 01-1.39-.09v4h-.87V17.27a18.11 18.11 0 012.33-.15c2.92 0 4.36 1.67 4.36 3.61 0 2.27-1.65 3.86-4.43 3.86zm13.49 3.95v-5.39h-6.51v5.39h-.86V17.2h.86v5.18h6.51V17.2h.87v11.34h-.87m3.6 0h.87V17.2h-.87zm7.49-9.76l-2.33 5.55h4.67zm4.13 9.76l-1.47-3.47h-5.32l-1.45 3.47h-.91l5-11.53h.15l5 11.53zM58.77 45.89a5.67 5.67 0 01-5.94-5.8 5.75 5.75 0 015.94-5.88 6.86 6.86 0 013.94 1.23l-.39.73a6.54 6.54 0 00-3.6-1.17 4.81 4.81 0 00-4.94 5.06 4.81 4.81 0 005 5 6.66 6.66 0 003.6-1.15l.31.71a6.89 6.89 0 01-3.91 1.24m5.69-.15V34.39h6.4v.78h-5.54v4.42h5v.78h-5V45h5.53v.79h-6.4m16.68.17l-7.54-9.68v9.46h-.85V34.27l.2-.05 7.48 9.52v-9.35h.86v11.49h-.15m6.54-10.74v10.6h-.88V35.17H83v-.78h8.56v.78h-3.88m5.49 10.57V34.39h6.4v.78H94v4.42h5v.78h-5V45h5.54v.79h-6.4M104 35.09a9.81 9.81 0 00-1.64.14v5.12a11.44 11.44 0 001.43.09c2.27 0 3.49-1.06 3.49-2.72s-1.13-2.63-3.28-2.63zm3.82 10.65l-3.09-4.62a6.15 6.15 0 01-1 .07c-.4 0-1 0-1.38-.07v4.62h-.88V34.5a17.59 17.59 0 012.43-.18c2.8 0 4.3 1.37 4.3 3.35a3.35 3.35 0 01-2.63 3.27l3.29 4.8zM45.6 12.69V0H30.8a25.82 25.82 0 0114.8 12.69M14.82 0H0v12.7A25.75 25.75 0 0114.82 0m.53 9.25a19.29 19.29 0 0120 3.92 19.8 19.8 0 016 10.94 17.67 17.67 0 00-4.22-6 17.2 17.2 0 00-10.32-4.57 14.51 14.51 0 00-5.75 1.92 15 15 0 00-5.35 20.35 14.6 14.6 0 0020.08 5.42 14.43 14.43 0 003.24-2.58 16.53 16.53 0 01-8.25 7H45.6v-23A22.93 22.93 0 0017.75 8.42a22.62 22.62 0 00-2.4.84zm-1.72 34.92a17.24 17.24 0 001.85 1.49h3.64a16.41 16.41 0 01-8.38-7.22 16.86 16.86 0 011-18.23 17.83 17.83 0 001.91 24m-4.6-1.88a20 20 0 01-1.22-27.92c.44-.48.9-.93 1.37-1.36a23.51 23.51 0 00-4.64 30.14A25.78 25.78 0 010 36.88v8.78h14a19.68 19.68 0 01-4.94-3.33" data-name="Layer 1"/></g></symbol></svg>