<?xml version="1.0" encoding="UTF-8"?>
<!-- Generated by Pixelmator Pro 3.8 -->
<svg width="19" height="22" viewBox="0 0 19 22" xmlns="http://www.w3.org/2000/svg">
    <g id="Page-1">
        <g id="icon-book-solid">
            <path id="Path" fill="#000000" stroke="none" d="M 16.285715 22 L 4.071429 22 C 1.823661 22 -0 20.152344 -0 17.875 L -0 4.125 C -0 1.847656 1.823661 0 4.071429 0 L 16.964285 0 C 18.088169 0 19 0.923828 19 2.0625 L 19 14.4375 C 19 15.335546 18.431696 16.100391 17.642857 16.383984 L 17.642857 19.25 C 18.393528 19.25 19 19.864452 19 20.625 C 19 21.385548 18.393528 22 17.642857 22 L 16.285715 22 Z M 4.071429 16.5 C 3.320759 16.5 2.714286 17.114452 2.714286 17.875 C 2.714286 18.635548 3.320759 19.25 4.071429 19.25 L 14.928572 19.25 L 14.928572 16.5 L 4.071429 16.5 Z M 5.428571 6.53125 C 5.428571 7.102735 5.882366 7.5625 6.446429 7.5625 L 13.910714 7.5625 C 14.474776 7.5625 14.928572 7.102735 14.928572 6.53125 C 14.928572 5.959766 14.474776 5.5 13.910714 5.5 L 6.446429 5.5 C 5.882366 5.5 5.428571 5.959766 5.428571 6.53125 Z M 6.446429 9.625 C 5.882366 9.625 5.428571 10.084766 5.428571 10.65625 C 5.428571 11.227734 5.882366 11.6875 6.446429 11.6875 L 13.910714 11.6875 C 14.474776 11.6875 14.928572 11.227734 14.928572 10.65625 C 14.928572 10.084766 14.474776 9.625 13.910714 9.625 L 6.446429 9.625 Z"/>
        </g>
    </g>
</svg>
