<?xml version="1.0" encoding="UTF-8"?>
<!-- Generated by Pixelmator Pro 3.8 -->
<svg width="22" height="22" viewBox="0 0 22 22" xmlns="http://www.w3.org/2000/svg">
    <g id="Page-1">
        <g id="icon-house">
            <path id="shape" var:color.fill="currentColor" fill-rule="nonzero" d="M 11.936718 0.369532 C 11.408203 -0.120312 10.591797 -0.120312 10.067577 0.369532 L 0.442578 9.307032 C 0.030078 9.69375 -0.107422 10.291016 0.098828 10.815235 C 0.305078 11.339453 0.807813 11.6875 1.375 11.6875 L 2.0625 11.6875 L 2.0625 19.25 C 2.0625 20.766796 3.295703 22 4.8125 22 L 17.1875 22 C 18.704296 22 19.9375 20.766796 19.9375 19.25 L 19.9375 11.6875 L 20.625 11.6875 C 21.192188 11.6875 21.699219 11.339453 21.905468 10.815235 C 22.111717 10.291016 21.97422 9.689453 21.561718 9.307032 L 11.936718 0.369532 Z M 10.3125 13.75 L 11.6875 13.75 C 12.826172 13.75 13.75 14.673828 13.75 15.8125 L 13.75 19.9375 L 8.25 19.9375 L 8.25 15.8125 C 8.25 14.673828 9.173828 13.75 10.3125 13.75 Z"/>
        </g>
    </g>
</svg>