<?xml version="1.0" encoding="UTF-8"?>
<svg width="21px" height="21px" viewBox="0 0 21 21" version="1.1" xmlns="http://www.w3.org/2000/svg" xmlns:xlink="http://www.w3.org/1999/xlink">
    <title>icon-info</title>
    <g id="Page-1" stroke="none" stroke-width="1" fill="none" fill-rule="evenodd">
        <g id="icon-info" var:color.fill="currentColor" fill-rule="nonzero">
            <path d="M10.25775,1.64124 C15.0091398,1.64124 18.87426,5.5063602 18.87426,10.25775 C18.87426,15.0091398 15.0091398,18.87426 10.25775,18.87426 C5.5063602,18.87426 1.64124,15.0091398 1.64124,10.25775 C1.64124,5.5063602 5.5063602,1.64124 10.25775,1.64124 M10.25775,0 C4.595472,0 0,4.595472 0,10.25775 C0,15.920028 4.595472,20.5155 10.25775,20.5155 C15.920028,20.5155 20.5155,15.920028 20.5155,10.25775 C20.5155,4.595472 15.920028,0 10.25775,0 L10.25775,0 Z" id="Shape"></path>
            <polygon id="Path" points="11.242494 15.386625 9.273006 15.386625 9.273006 13.6469106 9.273006 9.683316 11.242494 9.683316"></polygon>
            <circle id="Oval" cx="10.25775" cy="6.2613306" r="1.518147"></circle>
        </g>
    </g>
</svg>