<?xml version="1.0" encoding="UTF-8"?>
<!-- Generated by Pixelmator Pro 3.8 -->
<svg width="22" height="22" viewBox="0 0 22 22" xmlns="http://www.w3.org/2000/svg">
	<title>icon-church</title>
    <g id="Page-1">
        <g id="icon-church">
            <path id="Path" var:color.fill="currentColor" fill-rule="nonzero" stroke-width="0.042598" d="M 6.875 3.715931 L 6.875 7.136276 L 4.95 8.555087 C 4.430079 8.939348 4.125 9.538963 4.125 10.176583 L 4.125 11.865643 L 1.521094 13.145105 C 0.588672 13.605374 0 14.538579 0 15.564684 L 0 19.297504 C 0 20.788099 1.233203 22 2.75 22 C 5.959765 22 6.419531 22 16.5 22 L 19.25 22 C 20.766796 22 22 20.788099 22 19.297504 L 22 15.564684 C 22 14.542802 21.411327 13.605374 20.478905 13.149328 L 17.875 11.865643 L 17.875 10.176583 C 17.875 9.538963 17.569921 8.939348 17.049999 8.555087 L 15.125 7.136276 L 15.125 3.715931 C 15.125 3.314779 14.94453 2.93474 14.630859 2.67716 L 11.661718 0.244913 C 11.279297 -0.067562 10.725 -0.067562 10.342579 0.244913 L 7.369141 2.67716 C 7.055469 2.93474 6.875 3.314779 6.875 3.715931 Z M 11 13.892514 C 12.516796 13.892514 13.75 15.104415 13.75 16.595009 L 13.75 19.973129 L 8.25 19.973129 L 8.25 16.595009 C 8.25 15.104415 9.483204 13.892514 11 13.892514 Z"/>
        </g>
    </g>
</svg>
