<?xml version="1.0" encoding="UTF-8"?>
<svg width="51px" height="46px" viewBox="0 0 51 46" version="1.1" xmlns="http://www.w3.org/2000/svg" xmlns:xlink="http://www.w3.org/1999/xlink">
    <g id="Mobile" stroke="none" stroke-width="1" fill="none" fill-rule="evenodd">
        <g id="Albion-m-Landing" transform="translate(-52.000000, -15382.000000)">
            <g id="noun_virtual_1725235" transform="translate(0.000000, 15034.000000)">
                <g transform="translate(52.000000, 348.000000)">
                    <path d="M25.1942382,0.163295988 C11.4073912,0.163295988 0.13996799,7.58159945 0.13996799,16.7495028 C0.13996799,16.7495028 0.13996799,16.7495028 0.13996799,16.7495028 L0.13996799,31.3761577 C0.13996799,31.3761577 0.13996799,31.3761577 0.13996799,31.3761577 C0.13996799,36.7649253 4.0590717,41.803773 10.7075512,44.9530527 C10.7075512,44.9530527 10.7075512,44.9530527 10.7075512,44.9530527 C10.7775352,45.0230367 10.9175032,45.0230367 10.9874872,45.0230367 C10.9874872,45.0230367 10.9874872,45.0230367 10.9874872,45.0230367 C10.9874872,45.0230367 10.9874872,45.0230367 10.9874872,45.0230367 C10.9874872,45.0230367 10.9874872,45.0230367 10.9874872,45.0230367 C10.9874872,45.0230367 10.9874872,45.0230367 10.9874872,45.0230367 C11.0574712,45.0230367 11.1274552,45.0230367 11.1974392,44.9530527 C11.1974392,44.9530527 11.2674232,44.9530527 11.2674232,44.9530527 C11.3374072,44.9530527 11.4073912,44.8830687 11.4073912,44.8830687 C11.4073912,44.8830687 11.4073912,44.8830687 11.4773752,44.8130847 C11.5473592,44.7431007 11.5473592,44.6731167 11.6173432,44.6031328 C11.6173432,44.6031328 11.6173432,44.6031328 11.6173432,44.6031328 C11.6173432,44.5331488 11.6173432,44.5331488 11.6173432,44.4631648 C11.6173432,44.3931808 11.6173432,44.3931808 11.6173432,44.3231968 C11.6173432,44.3231968 11.6173432,44.3231968 11.6173432,44.3231968 L11.6173432,29.7665258 C11.6173432,29.6965418 11.6173432,29.6965418 11.6173432,29.6965418 C11.6173432,29.6265578 11.6173432,29.6265578 11.6173432,29.5565738 C11.6173432,29.4865899 11.5473592,29.4865899 11.5473592,29.4166059 C11.5473592,29.3466219 11.4773752,29.3466219 11.4773752,29.2766379 C11.4073912,29.2066539 11.4073912,29.2066539 11.3374072,29.2066539 C11.3374072,29.2066539 11.2674232,29.1366699 11.2674232,29.1366699 C8.46806338,27.806974 6.15859155,26.1273581 4.47897567,24.1678062 C7.97817542,20.0387505 14.276735,17.1694067 21.4151024,16.4695668 C22.2549104,17.3093747 23.3046703,17.8692467 24.4943982,18.0791987 L24.4943982,23.0480623 L18.1958387,23.0480623 C17.7759347,23.0480623 17.4959987,23.3279983 17.4959987,23.7479023 C17.4959987,24.1678062 17.7759347,24.4477422 18.1958387,24.4477422 L24.4943982,24.4477422 L24.4943982,29.7665258 L17.7059507,36.5549733 C17.4260147,36.8349093 17.4260147,37.2548133 17.7059507,37.5347493 C17.8459187,37.6747173 18.0558707,37.7447013 18.1958387,37.7447013 C18.3358067,37.7447013 18.5457586,37.6747173 18.6857266,37.5347493 L25.1942382,31.0262377 L31.7027497,37.5347493 C31.8427177,37.6747173 32.0526697,37.7447013 32.1926377,37.7447013 C32.3326056,37.7447013 32.5425576,37.6747173 32.6825256,37.5347493 C32.9624616,37.2548133 32.9624616,36.8349093 32.6825256,36.5549733 L25.8940781,29.6965418 L25.8940781,24.3777582 L32.1926377,24.3777582 C32.6125416,24.3777582 32.8924776,24.0978222 32.8924776,23.6779183 C32.8924776,23.2580143 32.6125416,22.9780783 32.1926377,22.9780783 L25.8940781,22.9780783 L25.8940781,18.0092147 C27.083806,17.8692467 28.2035499,17.2393907 28.9733739,16.3995828 C36.1117414,17.1694067 42.4103009,19.9687665 45.9095007,24.0978222 C44.2298848,26.0573741 41.9204129,27.73699 39.1210532,29.0666859 C39.1210532,29.0666859 39.0510692,29.1366699 39.0510692,29.1366699 C38.9810852,29.1366699 38.9810852,29.2066539 38.9111012,29.2066539 C38.9111012,29.2066539 38.8411172,29.2766379 38.8411172,29.3466219 C38.8411172,29.4166059 38.7711332,29.4166059 38.7711332,29.4865899 C38.7711332,29.5565738 38.7711332,29.5565738 38.7711332,29.6265578 C38.7711332,29.6265578 38.7711332,29.6965418 38.7711332,29.6965418 L38.7711332,44.3231968 C38.7711332,44.3231968 38.7711332,44.3231968 38.7711332,44.3231968 C38.7711332,44.3931808 38.7711332,44.3931808 38.7711332,44.4631648 C38.7711332,44.5331488 38.7711332,44.5331488 38.7711332,44.6031328 C38.7711332,44.6031328 38.7711332,44.6031328 38.7711332,44.6031328 C38.7711332,44.6731167 38.8411172,44.7431007 38.9111012,44.8130847 C38.9111012,44.8130847 38.9111012,44.8130847 38.9810852,44.8830687 C39.0510692,44.9530527 39.0510692,44.9530527 39.1210532,44.9530527 C39.1210532,44.9530527 39.1910371,44.9530527 39.1910371,44.9530527 C39.2610211,44.9530527 39.3310051,45.0230367 39.4009891,45.0230367 C39.4009891,45.0230367 39.4009891,45.0230367 39.4009891,45.0230367 C39.4009891,45.0230367 39.4009891,45.0230367 39.4009891,45.0230367 C39.4009891,45.0230367 39.4009891,45.0230367 39.4009891,45.0230367 C39.4009891,45.0230367 39.4009891,45.0230367 39.4009891,45.0230367 C39.4709731,45.0230367 39.6109411,45.0230367 39.6809251,44.9530527 C39.6809251,44.9530527 39.6809251,44.9530527 39.6809251,44.9530527 C46.2594206,41.8737569 50.2485083,36.7649253 50.2485083,31.3761577 C50.2485083,31.3761577 50.2485083,31.3761577 50.2485083,31.3761577 L50.2485083,16.8194868 C50.2485083,16.8194868 50.2485083,16.8194868 50.2485083,16.8194868 C50.2485083,7.65158344 38.9810852,0.163295988 25.1942382,0.163295988 Z M10.2876473,30.1864298 L10.2876473,43.2734368 C4.75891165,40.4040931 1.53964789,36.0650854 1.53964789,31.4461417 C1.53964789,31.4461417 1.53964789,31.4461417 1.53964789,31.4461417 L1.53964789,22.2782384 C1.95955186,23.0480623 2.44943982,23.8178863 3.00931178,24.5177262 C4.75891165,26.7572141 7.27833547,28.7167659 10.2876473,30.1864298 Z M25.1942382,16.6795188 C23.0947183,16.6795188 21.3451184,14.9299189 21.3451184,12.8303991 C21.3451184,10.7308792 23.0947183,8.98127935 25.1942382,8.98127935 C27.293758,8.98127935 29.0433579,10.7308792 29.0433579,12.8303991 C29.0433579,14.9299189 27.293758,16.6795188 25.1942382,16.6795188 Z M29.8831658,15.1398709 C30.2330858,14.4400309 30.4430378,13.670207 30.4430378,12.8303991 C30.4430378,9.96105527 28.063582,7.58159945 25.1942382,7.58159945 C22.3248944,7.58159945 19.9454385,9.96105527 19.9454385,12.8303991 C19.9454385,13.670207 20.1553905,14.4400309 20.5053105,15.1398709 C13.436927,16.0496628 7.27833547,18.9190066 3.56918374,23.0480623 C2.23948784,21.0885105 1.53964789,18.9889906 1.53964789,16.8894708 C1.53964789,8.49139138 12.1772151,1.63295988 25.1942382,1.63295988 C38.2112612,1.63295988 48.8488284,8.49139138 48.8488284,16.8894708 C48.8488284,19.0589746 48.1489885,21.1584945 46.8192926,23.0480623 C43.1801249,18.9190066 36.9515493,15.9796788 29.8831658,15.1398709 Z M40.1008291,43.2034529 L40.1008291,30.1864298 C43.1101409,28.7167659 45.6295647,26.7572141 47.3791645,24.5877102 C47.9390365,23.8878703 48.4289245,23.1180463 48.8488284,22.3482224 L48.8488284,31.5161257 C48.8488284,31.5161257 48.8488284,31.5161257 48.8488284,31.5161257 C48.8488284,35.9951014 45.6295647,40.3341091 40.1008291,43.2034529 Z" id="Shape" var:color.fill="currentColor" fill-rule="nonzero"></path>
                </g>
            </g>
        </g>
    </g>
</svg>