<?xml version="1.0" encoding="UTF-8"?>
<svg width="82px" height="86px" viewBox="0 0 82 86" version="1.1" xmlns="http://www.w3.org/2000/svg" xmlns:xlink="http://www.w3.org/1999/xlink">
    <g id="Revised-Concept-&amp;-Design-System" stroke="none" stroke-width="1" fill="none" fill-rule="evenodd">
        <g id="Albion-Program" transform="translate(-1021.000000, -2311.000000)">
            <g id="Emphases-&amp;-Certification" transform="translate(0.000000, 2219.000000)">
                <g id="noun_Certificate_999000" transform="translate(987.000000, 60.000000)">
                    <g transform="translate(34.000000, 31.000000)">
                        <g id="Group" transform="translate(0.000000, 0.637820)" var:color.fill="currentColor" fill-rule="nonzero">
                            <path d="M61.291195,0.36374 C58.586489,0.38464 56.179571,1.14856 54.356148,2.61366 C54.3000369,2.64999538 54.24771,2.69186824 54.199953,2.73865 L31.301805,30.64387 L31.208085,30.73757 L0.344006,58.6429 C0.323883,58.6639 0.301383,58.6859 0.281528,58.7049 C0.0854837709,58.9766823 0.0385692066,59.3286285 0.1565722,59.6423 C0.0056809,60.1287 -0.0213308,60.6386 0.0940942,61.111 C0.2892965,61.9099 0.7500551,62.6413 1.343652,63.3922 C2.442388,64.7819 4.09179,66.2324 5.967016,67.767 C4.855969,68.7376 3.643655,69.7995 2.780643,70.5481 C2.048673,71.1832 1.452094,71.7234 1.031262,72.0794 C0.858764,72.2253 0.7575744,72.3406 0.6563953,72.4231 C0.635215219,72.4327033 0.614376543,72.443043 0.5939173,72.4541 C0.5577013,72.4701 0.5482973,72.4761 0.5314393,72.4851 C0.4977243,72.5031 0.5087143,72.5101 0.5002003,72.5161 C0.4904903,72.5261 0.4687093,72.5471 0.4689613,72.5471 C0.168903631,72.7351497 -0.00933304542,73.0679378 -2.98777771e-07,73.422 C-2.98777771e-07,73.4225 0.2226627,73.7554 0.4064834,74.0158 L0.3127664,74.1098 C4.2128,77.7651 9.463008,81.6943 14.370292,84.1094 C16.823934,85.3169 19.197559,86.1455 21.336577,86.3282 C23.475595,86.5108 25.497473,85.9732 26.772154,84.3594 C27.159785,83.8686 27.483181,83.357 27.7718,82.797 L48.077116,57.9542 C48.037386,58.4247 47.983396,58.9012 47.983396,59.3916 C47.983396,61.7359 48.449633,63.8555 49.264193,65.4851 C50.078753,67.1147 51.337202,68.3913 52.981628,68.3913 C54.626053,68.3913 55.884502,67.1147 56.699062,65.4851 C57.513622,63.8555 57.979859,61.7359 57.979859,59.3916 C57.979859,57.9394 57.778618,56.5864 57.448797,55.3605 C58.993822,56.0193 60.88719,56.3918 62.978091,56.3918 C65.32152,56.3918 67.44057,55.9253 69.069685,55.1105 C70.698801,54.2956 71.974908,53.0369 71.974908,51.3919 C71.974908,49.747 70.698806,48.4568 69.069685,47.6421 C67.440565,46.8273 65.321512,46.3921 62.978091,46.3921 C61.074065,46.3921 59.320256,46.6911 57.854903,47.2358 L79.659689,27.1115 C79.6929661,27.0823742 79.7242748,27.0510722 79.753409,27.0178 C83.453353,22.49274 82.909622,13.69741 75.661107,6.6748 C75.6612692,6.66440063 75.6612692,6.65399937 75.661107,6.6436 C71.101552,2.33819 65.799034,0.3278 61.291192,0.362136554 L61.291195,0.36374 Z M60.791371,2.42616 C64.796842,2.24303 69.852261,3.92628 74.286597,8.11346 C80.967916,14.58655 80.994592,22.30956 78.191465,25.73781 L54.481104,47.612 C54.362399,47.3872 54.255351,47.1199 54.168715,46.7684 C53.908805,45.7136 53.938862,44.1411 54.199955,42.4872 C54.722139,39.1793 56.208677,35.4014 57.448806,33.80001 C57.7162138,33.4780953 57.7549329,33.0236566 57.5458421,32.6611175 C57.3367512,32.2985783 56.9240851,32.1046366 56.511638,32.17507 C56.2588269,32.2248815 56.035004,32.3704107 55.886859,32.5813 C54.241101,34.70647 52.774058,38.5425 52.200663,42.1747 C52.106233,42.7729 52.049589,43.3775 52.013229,43.956 C50.720529,41.4492 48.918602,39.19338 46.765086,37.17488 C43.269426,33.89829 38.326171,31.75579 33.519772,31.11261 L55.699425,4.1136 C56.618794,3.39714 57.773923,2.8752 59.135709,2.61366 C59.659783,2.51301 60.219163,2.45232 60.791373,2.42616 L60.791371,2.42616 Z M31.73915,32.92504 C36.547467,33.21474 41.904633,35.37611 45.39057,38.64358 C48.246812,41.3208 50.358024,44.2592 51.388448,47.7058 C50.098449,47.0686 48.523089,46.6974 46.827562,46.5184 C44.999675,46.3254 43.0581,46.3363 41.267029,46.5184 C39.475959,46.7005 37.851463,47.0607 36.612426,47.5808 C36.2472987,47.6888674 35.9752423,47.9950299 35.9107648,48.3704244 C35.8462873,48.7458189 36.0005851,49.1252582 36.3087147,49.3490371 C36.6168442,49.572816 37.0252989,49.6020754 37.362161,49.4245 C39.229457,48.6407 43.279626,48.1667 46.608889,48.5183 C48.273521,48.6941 49.781187,49.0566 50.73243,49.5808 C51.189058,49.8323 51.499594,50.0713 51.700838,50.3307 L51.201015,50.9557 C50.403743,51.4706 49.753583,52.2891 49.2642,53.2681 C49.24585,53.3051 49.25096,53.3561 49.23296,53.3931 L29.083839,77.9859 C29.194842,76.543 29.069659,75.0392 28.802688,73.5174 C28.737468,73.1205 28.672842,72.7302 28.584016,72.3299 C28.554736,72.2054 28.521916,72.0793 28.490296,71.9549 C27.617033,68.324 25.740945,64.6369 22.836046,61.8303 C22.8161329,61.808732 22.7952863,61.7880456 22.773566,61.7683 C22.768166,61.7583 22.779066,61.7423 22.773566,61.7373 C22.7633797,61.7267402 22.7529639,61.7164044 22.742326,61.7063 C22.722606,61.6843 22.699766,61.6653 22.679846,61.6443 C22.669126,61.6343 22.659346,61.6233 22.648606,61.6133 C20.9268,59.7679 18.484164,58.3765 15.807276,57.426 C14.075682,56.771 12.308523,56.3203 10.590372,56.1135 C8.991844,55.9211 7.474009,55.9525 6.029486,56.1445 L31.73915,32.92504 Z M62.978098,48.3933 C65.051404,48.3933 66.929719,48.8229 68.195002,49.4558 C69.460285,50.0886 69.975622,50.829 69.975622,51.3932 C69.975622,51.9573 69.460289,52.6665 68.195002,53.2993 C66.929715,53.9322 65.051396,54.3931 62.978098,54.3931 C60.904804,54.3931 59.026483,53.9322 57.761193,53.2993 C56.495904,52.6665 55.980573,51.9573 55.980573,51.3932 C55.980573,50.829 56.495909,50.0886 57.761193,49.4558 C59.026478,48.8229 60.904796,48.3933 62.978098,48.3933 Z M52.919157,52.3932 C52.9607682,52.3957986 53.0025008,52.3957986 53.044112,52.3932 C53.600385,52.4262 54.306696,52.9504 54.918449,54.1743 C55.551092,55.44 55.980573,57.319 55.980573,59.3929 C55.980573,61.4668 55.551092,63.3145 54.918449,64.5802 C54.285806,65.8459 53.545568,66.3926 52.981635,66.3926 C52.417701,66.3926 51.677463,65.8459 51.04482,64.5802 C50.412177,63.3145 49.982696,61.4668 49.982696,59.3929 C49.982696,57.4394 50.378134,55.6823 50.951103,54.4243 L52.450572,52.5806 C52.620996,52.4936 52.766864,52.4023 52.919157,52.3932 L52.919157,52.3932 Z M8.372418,58.0803964 C9.285649,58.081 10.243449,58.1454 11.215162,58.2991 C12.650058,58.5265 14.096205,58.9073 15.463659,59.4241 C15.002922,59.8338 14.383812,60.37 13.6518,61.0178 C12.134263,62.3609 10.156699,64.0967 8.184984,65.8302 C7.923273,66.0602 7.726919,66.2266 7.466488,66.4551 C5.524597,64.8728 3.861877,63.3523 2.905602,62.1428 C2.411504,61.5178 2.114285,60.984 2.030911,60.6428 C1.947541,60.3017 1.960281,60.2333 2.124631,60.0491 C3.28818,58.7456 5.632728,58.0786 8.372421,58.0803964 L8.372418,58.0803964 Z M17.150562,60.5804 C21.543394,62.5566 24.680901,66.6477 26.147379,71.0487 C26.338366,71.6218 26.514061,72.2232 26.647202,72.7986 C26.724732,73.1485 26.777675,73.4833 26.834636,73.8299 C27.438824,77.506 26.815376,80.8485 25.397644,82.517 L25.21021,82.7357 C25.043686,82.9254199 24.95449,83.1707961 24.960299,83.4232 C24.174593,84.2098 23.053423,84.494 21.492776,84.3607 C19.756322,84.2123 17.595221,83.4708 15.276225,82.3295 C10.964127,80.2074 6.270264,76.7095 2.593212,73.3924 C3.00591,73.041 3.468921,72.6211 4.092682,72.0799 C5.562957,70.8044 7.523448,69.0651 9.49702,67.3301 C11.470592,65.5951 13.475599,63.8625 14.995075,62.5178 C15.754813,61.8454 16.371133,61.2773 16.838172,60.8615 C17.012105,60.7066 17.036231,60.6819 17.150562,60.5804 L17.150562,60.5804 Z" id="Shape"></path>
                        </g>
                    </g>
                </g>
            </g>
        </g>
    </g>
</svg>