<?xml version="1.0" encoding="UTF-8"?>
<svg width="22px" height="22px" viewBox="0 0 22 22" version="1.1" xmlns="http://www.w3.org/2000/svg" xmlns:xlink="http://www.w3.org/1999/xlink">
    <title>icon-pencil</title>
    <g id="Page-1" stroke="none" stroke-width="1" fill="none" fill-rule="evenodd">
        <g id="icon-pencil" var:color.fill="currentColor" fill-rule="nonzero">
            <g id="Group" transform="translate(11.000000, 11.000000) scale(-1, 1) translate(-11.000000, -11.000000) ">
                <path d="M13.9735174,21.21434 C13.6347654,21.21434 13.2113255,20.7909001 11.3905338,18.9701084 C10.2049021,17.7844766 8.59583038,16.1754049 6.98675868,14.5663332 L0,7.57957457 L0.550471896,7.02910267 C0.550471896,7.02910267 6.8597267,0.677503872 6.94441469,0.592815888 L7.53723058,0 L21.171996,13.6347654 L21.171996,21.171996 L20.3674602,21.171996 C19.0547964,21.171996 17.6997887,21.171996 16.3871249,21.171996 C15.624933,21.171996 14.8627412,21.171996 14.1005493,21.171996 C14.0582053,21.21434 14.0158614,21.21434 13.9735174,21.21434 Z M14.2699253,19.6052683 C14.9474292,19.6052683 15.667277,19.6052683 16.3447809,19.6052683 C17.4033807,19.6052683 18.4619805,19.6052683 19.5205803,19.6052683 L19.5205803,14.3122693 L7.53723058,2.28657557 C6.30925481,3.51455134 3.47220734,6.3515988 2.24423158,7.57957457 C5.75878291,11.0517819 12.9572616,18.2502606 14.2699253,19.6052683 Z" id="Shape"></path>
                <rect id="Rectangle" transform="translate(8.033350, 7.969097) rotate(45.008103) translate(-8.033350, -7.969097) " x="7.2288217" y="3.18427151" width="1.60905628" height="9.56965051"></rect>
                <rect id="Rectangle" transform="translate(16.686912, 16.910149) rotate(45.234983) translate(-16.686912, -16.910149) " x="15.8823767" y="11.955908" width="1.6090698" height="9.90848244"></rect>
            </g>
        </g>
    </g>
</svg>