<?xml version="1.0" encoding="UTF-8"?>
<svg width="81px" height="74px" viewBox="0 0 81 74" version="1.1" xmlns="http://www.w3.org/2000/svg" xmlns:xlink="http://www.w3.org/1999/xlink">
    <title>Group 8</title>
    <g id="Symbols" stroke="none" stroke-width="1" fill="none" fill-rule="evenodd">
        <g id="Routing-Panel" transform="translate(-1022.000000, -163.000000)" var:color.fill="currentColor" var:color.stroke="currentColor">
            <g id="Group" transform="translate(987.000000, 125.000000)">
                <g id="Group-8" transform="translate(75.500000, 75.000000) scale(-1, 1) translate(-75.500000, -75.000000) translate(36.000000, 39.000000)">
                    <path d="M35.9102,1.5 C16.9362,1.5 1.5002,16.936 1.5002,35.91 C1.5002,54.889 16.9362,70.33 35.9102,70.33 L76.5722,70.33 L65.2242,54.833 C65.0442,54.586 65.0312,54.255 65.1922,53.995 C68.5542,48.575 70.3302,42.321 70.3302,35.91 C70.3302,16.936 54.8892,1.5 35.9102,1.5 M78.0512,71.83 L35.9102,71.83 C16.1092,71.83 0.000199999999,55.716 0.000199999999,35.91 C0.000199999999,16.109 16.1092,0 35.9102,0 C55.7172,0 71.8302,16.109 71.8302,35.91 C71.8302,42.431 70.0682,48.796 66.7312,54.352 L78.6562,70.637 C78.8232,70.865 78.8482,71.167 78.7202,71.419 C78.5922,71.671 78.3332,71.83 78.0512,71.83" id="Fill-1"></path>
                    <path d="M36.1738,51.9639 C35.7598,51.9639 35.4238,51.6279 35.4238,51.2139 L35.4238,30.1099 C35.4238,29.6959 35.7598,29.3599 36.1738,29.3599 C36.5878,29.3599 36.9238,29.6959 36.9238,30.1099 L36.9238,51.2139 C36.9238,51.6279 36.5878,51.9639 36.1738,51.9639" id="Fill-4"></path>
                    <path d="M37.623,22.1236 C37.623,22.9236 36.975,23.5736 36.174,23.5736 C35.373,23.5736 34.724,22.9236 34.724,22.1236 C34.724,21.3226 35.373,20.6736 36.174,20.6736 C36.975,20.6736 37.623,21.3226 37.623,22.1236" id="Fill-6"></path>
                </g>
            </g>
        </g>
    </g>
</svg>