<?xml version="1.0" encoding="UTF-8"?>
<svg width="22px" height="23px" viewBox="0 0 22 23" version="1.1" xmlns="http://www.w3.org/2000/svg" xmlns:xlink="http://www.w3.org/1999/xlink">
    <title>icon-gift</title>
    <g id="Page-1" stroke="none" stroke-width="1" fill="none" fill-rule="evenodd">
        <g id="icon-gift" var:color.fill="currentColor" fill-rule="nonzero">
            <path d="M16.6294888,3.48454603 C16.6294888,1.85000434 15.3045567,0.52507218 13.670015,0.52507218 C12.457132,0.52507218 11.4162543,1.25535749 10.9592116,2.29967531 C10.502169,1.25535749 9.4612913,0.52507218 8.2484083,0.52507218 C6.61386661,0.52507218 5.28893445,1.85000434 5.28893445,3.48454603 C5.28893445,4.25070672 5.58232633,4.94609953 6.06000959,5.47194427 L0.066853897,5.47194427 L0.066853897,11.0950429 L1.32691549,11.0950429 L1.32691549,22.6965538 L8.15896555,22.6965538 L13.7599492,22.6965538 L20.5915078,22.6965538 L20.5915078,11.0945514 L21.8515694,11.0945514 L21.8515694,5.47194427 L15.8584137,5.47194427 C16.336097,4.94609953 16.6294888,4.25070672 16.6294888,3.48454603 Z M12.2084615,3.48454603 C12.2084615,2.67857839 12.8640473,2.02299252 13.670015,2.02299252 C14.4759826,2.02299252 15.1315685,2.67857839 15.1315685,3.48454603 C15.1315685,4.29051366 14.4759826,4.94609953 13.670015,4.94609953 L12.2084615,4.94609953 L12.2084615,3.48454603 Z M8.2484083,2.02299252 C9.05437593,2.02299252 9.7099618,2.67857839 9.7099618,3.48454603 L9.7099618,4.94609953 L8.2484083,4.94609953 C7.44244066,4.94609953 6.78685479,4.29051366 6.78685479,3.48454603 C6.78685479,2.67857839 7.44244066,2.02299252 8.2484083,2.02299252 Z M8.1584741,21.1991249 L2.82434439,21.1991249 L2.82434439,11.0950429 L8.1584741,11.0950429 L8.1584741,21.1991249 Z M12.2620288,21.1991249 L9.655903,21.1991249 L9.655903,11.0950429 L12.2620288,11.0950429 L12.2620288,21.1991249 Z M19.0940789,21.1991249 L13.7599492,21.1991249 L13.7599492,11.0950429 L19.0940789,11.0950429 L19.0940789,21.1991249 Z M20.3541405,6.96937317 L20.3541405,9.59712253 L1.56428279,9.59712253 L1.56428279,6.96937317 L9.6563944,6.96937317 L12.2625203,6.96937317 L20.3541405,6.96937317 Z" id="Shape"></path>
        </g>
    </g>
</svg>