<svg xmlns="http://www.w3.org/2000/svg" viewBox="0 0 48 36">
    <title>”</title>
    <g id="Revised-Concept-&amp;-Design-System" stroke="none" stroke-width="1" fill="none" fill-rule="evenodd">
        <g id="Albion-TertiaryPageInventory" transform="translate(-456.000000, -1439.000000)" var:color.fill="currentColor">
            <path d="M456,1475 C470.226667,1473.94561 478,1465.20921 478,1453.00837 C478,1444.87448 473.893333,1439 466.853333,1439 C461.133333,1439 456.44,1443.06695 456.44,1449.24268 C456.44,1454.66527 459.813333,1457.82845 464.066667,1458.73222 L469.493333,1458.73222 C468.906667,1465.51046 464.066667,1469.57741 456,1470.93305 L456,1475 Z M482,1475 C496.373333,1473.94561 504,1465.20921 504,1453.00837 C504,1444.87448 499.893333,1439 492.853333,1439 C487.133333,1439 482.586667,1443.06695 482.586667,1449.24268 C482.586667,1454.66527 485.96,1457.82845 490.213333,1458.73222 L495.64,1458.73222 C494.906667,1465.51046 490.213333,1469.57741 482,1470.93305 L482,1475 Z" id="”" transform="translate(480.000000, 1457.000000) scale(-1, 1) translate(-480.000000, -1457.000000) "></path>
        </g>
    </g>
</svg>