<?xml version="1.0" encoding="UTF-8"?>
<!-- Generated by Pixelmator Pro 3.8 -->
<svg width="22" height="21" viewBox="0 0 22 21" xmlns="http://www.w3.org/2000/svg">
    <g id="Page-1">
        <g id="icon-greek">
            <path id="Path" var:color.fill="currentColor" fill-rule="nonzero" d="M 11.703314 0.177822 C 11.283041 -0.059275 10.764132 -0.059275 10.339571 0.177822 L 0.733333 5.597178 C 0.192982 5.902016 -0.072905 6.528629 0.08577 7.121371 C 0.244444 7.714113 0.793372 8.129032 1.415205 8.129032 L 2.787524 8.129032 L 2.787524 16.935484 L 2.787524 16.935484 L 0.591813 18.561291 C 0.244444 18.815323 0.042885 19.217541 0.042885 19.645161 C 0.042885 20.394556 0.656141 21 1.415205 21 L 20.62768 21 C 21.386745 21 22 20.394556 22 19.645161 C 22 19.217541 21.798441 18.815323 21.451073 18.561291 L 19.255362 16.935484 L 19.255362 8.129032 L 20.62768 8.129032 C 21.249512 8.129032 21.794153 7.714113 21.952827 7.121371 C 22.1115 6.528629 21.845615 5.902016 21.305264 5.597178 L 11.699025 0.177822 Z M 17.19688 8.129032 L 17.19688 16.935484 L 14.452242 16.935484 L 14.452242 8.129032 L 17.19688 8.129032 Z M 12.393763 8.129032 L 12.393763 16.935484 L 9.649123 16.935484 L 9.649123 8.129032 L 12.393763 8.129032 Z M 7.590643 8.129032 L 7.590643 16.935484 L 4.846004 16.935484 L 4.846004 8.129032 L 7.590643 8.129032 Z M 11.021442 3.387096 C 11.780507 3.387096 12.393763 3.99254 12.393763 4.741936 C 12.393763 5.49133 11.780507 6.096774 11.021442 6.096774 C 10.262378 6.096774 9.649123 5.49133 9.649123 4.741936 C 9.649123 3.99254 10.262378 3.387096 11.021442 3.387096 Z"/>
        </g>
    </g>
</svg>
