<?xml version="1.0" encoding="UTF-8"?>
<svg width="21px" height="21px" viewBox="0 0 17 21" version="1.1" xmlns="http://www.w3.org/2000/svg" xmlns:xlink="http://www.w3.org/1999/xlink">
	<title>icon-book</title>
    <g fill="currentColor">
		<g id="icon-book" var:color.fill="currentColor">
			<path id="Path" d="M 2.55 0 C 1.152149 0 0 1.129557 0 2.5 L 0 17.5 C 0 18.870443 1.152149 20 2.55 20 L 17 20 L 17 0 Z M 2.55 1.666666 L 15.3 1.666666 L 15.3 15 L 2.55 15 C 2.251173 15 1.968945 15.06185 1.7 15.15625 L 1.7 2.5 C 1.7 2.027994 2.068555 1.666666 2.55 1.666666 Z M 4.25 4.166667 L 4.25 5.833333 L 13.6 5.833333 L 13.6 4.166667 Z M 2.55 16.666666 L 15.3 16.666666 L 15.3 18.333334 L 2.55 18.333334 C 2.068555 18.333334 1.7 17.972006 1.7 17.5 C 1.7 17.027994 2.068555 16.666666 2.55 16.666666 Z"/>
		</g>
	</g>
</svg>