<?xml version="1.0" encoding="UTF-8"?>
<!-- Generated by Pixelmator Pro 3.8 -->
<svg width="22" height="17" viewBox="0 0 22 17" xmlns="http://www.w3.org/2000/svg">
    <g id="Page-1">
        <g id="icon-water">
            <path id="Path" fill="#000000" stroke="none" d="M 17.642969 2.660677 C 18.532421 3.351302 19.61953 4.019792 20.831249 4.188021 C 21.394142 4.267708 21.914063 3.855989 21.991405 3.276042 C 22.068748 2.696094 21.66914 2.160417 21.106251 2.080729 C 20.423046 1.987761 19.679688 1.580468 18.884766 0.965105 C 17.234766 -0.31875 14.996094 -0.31875 13.341797 0.965105 C 12.310547 1.766406 11.592968 2.129427 11 2.129427 C 10.407032 2.129427 9.689453 1.766406 8.658203 0.965105 C 7.008204 -0.31875 4.769531 -0.31875 3.115234 0.965105 C 2.320313 1.580468 1.576953 1.987761 0.89375 2.080729 C 0.330859 2.160417 -0.06875 2.691667 0.008594 3.276042 C 0.085938 3.860416 0.601563 4.267708 1.16875 4.188021 C 2.380469 4.019792 3.471875 3.351302 4.357031 2.660677 C 5.272265 1.947917 6.501172 1.947917 7.416407 2.660677 C 8.456249 3.470833 9.663671 4.25 11 4.25 C 12.336329 4.25 13.539454 3.466407 14.583593 2.660677 C 15.498829 1.947917 16.727734 1.947917 17.642969 2.660677 Z M 17.642969 9.035677 C 18.532421 9.726303 19.61953 10.394791 20.831249 10.563021 C 21.394142 10.642708 21.914063 10.230989 21.991405 9.651041 C 22.068748 9.071094 21.66914 8.535416 21.106251 8.455729 C 20.423046 8.362761 19.679688 7.955469 18.884766 7.340104 C 17.234766 6.05625 14.996094 6.05625 13.341797 7.340104 C 12.310547 8.141406 11.592968 8.504427 11 8.504427 C 10.407032 8.504427 9.689453 8.141406 8.658203 7.340104 C 7.008204 6.05625 4.769531 6.05625 3.115234 7.340104 C 2.320313 7.955469 1.576953 8.362761 0.89375 8.455729 C 0.330859 8.53099 -0.06875 9.066666 0.008594 9.651041 C 0.085938 10.235417 0.601563 10.642708 1.16875 10.563021 C 2.380469 10.394791 3.471875 9.726303 4.357031 9.035677 C 5.272265 8.322917 6.501172 8.322917 7.416407 9.035677 C 8.456249 9.845833 9.663671 10.625 11 10.625 C 12.336329 10.625 13.539454 9.841406 14.583593 9.035677 C 15.498829 8.322917 16.727734 8.322917 17.642969 9.035677 Z M 14.583593 15.410677 C 15.498829 14.697917 16.727734 14.697917 17.642969 15.410677 C 18.532421 16.101303 19.61953 16.769791 20.831249 16.938021 C 21.394142 17.01771 21.914063 16.605989 21.991405 16.026041 C 22.068748 15.446094 21.66914 14.910416 21.106251 14.830729 C 20.423046 14.737761 19.679688 14.330469 18.884766 13.715103 C 17.234766 12.43125 14.996094 12.43125 13.341797 13.715103 C 12.310547 14.516406 11.592968 14.879427 11 14.879427 C 10.407032 14.879427 9.689453 14.516406 8.658203 13.715103 C 7.008204 12.43125 4.769531 12.43125 3.115234 13.715103 C 2.320313 14.330469 1.576953 14.737761 0.89375 14.830729 C 0.330859 14.910416 -0.06875 15.441666 0.008594 16.026041 C 0.085938 16.610416 0.601563 17.01771 1.16875 16.938021 C 2.380469 16.769791 3.471875 16.101303 4.357031 15.410677 C 5.272265 14.697917 6.501172 14.697917 7.416407 15.410677 C 8.456249 16.220833 9.663671 17 11 17 C 12.336329 17 13.539454 16.216406 14.583593 15.410677 Z"/>
        </g>
    </g>
</svg>
