<?xml version="1.0" encoding="UTF-8"?>
<svg width="96px" height="98px" viewBox="0 0 96 98" version="1.1" xmlns="http://www.w3.org/2000/svg" xmlns:xlink="http://www.w3.org/1999/xlink">
    <title>noun_Portfolio demonstration_986353</title>
    <g id="Revised-Concept-&amp;-Design-System" stroke="none" stroke-width="1" fill="none" fill-rule="evenodd">
        <g id="Albion-Program" transform="translate(-1015.000000, -6024.000000)" var:color.fill="currentColor" fill-rule="nonzero">
            <g id="Careers-&amp;-Outcomes" transform="translate(0.000000, 5908.000000)">
                <g id="Group-14" transform="translate(988.000000, 90.000000)">
                    <g id="noun_Portfolio-demonstration_986353" transform="translate(27.000000, 26.500000)">
                        <g id="Group" transform="translate(0.000000, 0.500000)">
                            <path d="M51.352381,50.7428571 L53.3333333,46.3238095 L53.3333333,42.8190476 L42.5142857,42.8190476 L42.5142857,46.3238095 L44.4952381,50.7428571 L51.352381,50.7428571 Z M44.8,45.2571429 L51.047619,45.2571429 L51.047619,46.0190476 L49.8285714,48.6095238 L45.8666667,48.6095238 L44.647619,46.0190476 L44.647619,45.2571429 L44.8,45.2571429 Z" id="Shape"></path>
                            <path d="M58.8190476,23.1619048 L37.1809524,23.1619048 L37.1809524,28.647619 L19.6571429,28.647619 L19.6571429,66.7428571 L76.3428571,66.7428571 L76.3428571,28.647619 L58.8190476,28.647619 L58.8190476,23.1619048 Z M39.4666667,25.447619 L56.6857143,25.447619 L56.6857143,28.647619 L39.4666667,28.647619 L39.4666667,25.447619 Z M74.0571429,30.7809524 L74.0571429,41.447619 L69.0285714,45.2571429 C68.4190476,45.7142857 67.5047619,46.0190476 66.5904762,46.0190476 L55.4666667,46.0190476 L55.4666667,48.3047619 L66.5904762,48.3047619 C67.9619048,48.3047619 69.3333333,47.847619 70.4,47.0857143 L74.0571429,44.3428571 L74.0571429,64.3047619 L21.9428571,64.3047619 L21.9428571,44.3428571 L25.6,47.0857143 C26.6666667,47.847619 28.0380952,48.3047619 29.4095238,48.3047619 L40.5333333,48.3047619 L40.5333333,46.0190476 L29.4095238,46.0190476 C28.4952381,46.0190476 27.7333333,45.7142857 26.9714286,45.2571429 L21.9428571,41.447619 L21.9428571,30.7809524 L37.1809524,30.7809524 L58.9714286,30.7809524 L74.0571429,30.7809524 Z" id="Shape"></path>
                            <rect id="Rectangle" x="46.7809524" y="5.48571429" width="2.28571429" height="2.28571429"></rect>
                            <rect id="Rectangle" x="46.7809524" y="0.152380952" width="2.28571429" height="2.28571429"></rect>
                            <polygon id="Rectangle" transform="translate(24.638156, 7.516069) rotate(60.007099) translate(-24.638156, -7.516069) " points="23.4952824 6.37319473 25.78103 6.37319473 25.78103 8.65894241 23.4952824 8.65894241"></polygon>
                            <polygon id="Rectangle" transform="translate(27.310941, 12.245173) rotate(149.994310) translate(-27.310941, -12.245173) " points="26.1680518 11.1022842 28.4538301 11.1022842 28.4538301 13.3880625 26.1680518 13.3880625"></polygon>
                            <polygon id="Rectangle" transform="translate(12.243497, 27.312617) rotate(-149.994310) translate(-12.243497, -27.312617) " points="11.100608 26.169728 13.3863863 26.169728 13.3863863 28.4555063 11.100608 28.4555063"></polygon>
                            <polygon id="Rectangle" transform="translate(7.544709, 24.688160) rotate(-149.994310) translate(-7.544709, -24.688160) " points="6.40181942 23.5452709 8.68759772 23.5452709 8.68759772 25.8310491 6.40181942 25.8310491"></polygon>
                            <rect id="Rectangle" x="5.48571429" y="46.9333333" width="2.28571429" height="2.28571429"></rect>
                            <rect id="Rectangle" x="0.152380952" y="46.9333333" width="2.28571429" height="2.28571429"></rect>
                            <polygon id="Rectangle" transform="translate(12.171284, 68.751992) rotate(-120.005690) translate(-12.171284, -68.751992) " points="11.0283947 67.6091032 13.314173 67.6091032 13.314173 69.8948815 11.0283947 69.8948815"></polygon>
                            <polygon id="Rectangle" transform="translate(7.594522, 71.339147) rotate(-120.005690) translate(-7.594522, -71.339147) " points="6.45163276 70.1962575 8.73741105 70.1962575 8.73741105 72.4820358 6.45163276 72.4820358"></polygon>
                            <polygon id="Rectangle" transform="translate(27.313989, 83.753912) rotate(-149.994310) translate(-27.313989, -83.753912) " points="26.1710994 82.6110232 28.4568777 82.6110232 28.4568777 84.8968015 26.1710994 84.8968015"></polygon>
                            <polygon id="Rectangle" transform="translate(24.689531, 88.452549) rotate(-149.994310) translate(-24.689531, -88.452549) " points="23.5466423 87.3096594 25.8324206 87.3096594 25.8324206 89.5954377 23.5466423 89.5954377"></polygon>
                            <rect id="Rectangle" x="46.7809524" y="93.5619048" width="2.28571429" height="2.28571429"></rect>
                            <rect id="Rectangle" x="46.7809524" y="88.2285714" width="2.28571429" height="2.28571429"></rect>
                            <polygon id="Rectangle" transform="translate(71.345051, 88.404907) rotate(-119.992901) translate(-71.345051, -88.404907) " points="70.2021776 87.2620328 72.4879253 87.2620328 72.4879253 89.5477805 70.2021776 89.5477805"></polygon>
                            <polygon id="Rectangle" transform="translate(68.678552, 83.898362) rotate(-30.000728) translate(-68.678552, -83.898362) " points="67.5357204 82.7555299 69.8213844 82.7555299 69.8213844 85.0411939 67.5357204 85.0411939"></polygon>
                            <polygon id="Rectangle" transform="translate(83.754210, 68.690743) rotate(-149.999272) translate(-83.754210, -68.690743) " points="82.6113775 67.5479109 84.8970415 67.5479109 84.8970415 69.8335749 82.6113775 69.8335749"></polygon>
                            <polygon id="Rectangle" transform="translate(88.455444, 71.308183) rotate(-149.994310) translate(-88.455444, -71.308183) " points="87.3125547 70.1652937 89.598333 70.1652937 89.598333 72.451072 87.3125547 72.451072"></polygon>
                            <rect id="Rectangle" x="93.5619048" y="46.9333333" width="2.28571429" height="2.28571429"></rect>
                            <rect id="Rectangle" x="88.2285714" y="46.9333333" width="2.28571429" height="2.28571429"></rect>
                            <polygon id="Rectangle" transform="translate(83.826583, 27.243893) rotate(-120.005690) translate(-83.826583, -27.243893) " points="82.6836937 26.1010042 84.969472 26.1010042 84.969472 28.3867825 82.6836937 28.3867825"></polygon>
                            <polygon id="Rectangle" transform="translate(88.488084, 24.641394) rotate(59.994310) translate(-88.488084, -24.641394) " points="87.3451947 23.4985051 89.630973 23.4985051 89.630973 25.7842834 87.3451947 25.7842834"></polygon>
                            <polygon id="Rectangle" transform="translate(68.682667, 12.101333) rotate(30.000728) translate(-68.682667, -12.101333) " points="67.5398347 10.9585013 69.8254987 10.9585013 69.8254987 13.2441653 67.5398347 13.2441653"></polygon>
                            <polygon id="Rectangle" transform="translate(71.391238, 7.561600) rotate(30.000728) translate(-71.391238, -7.561600) " points="70.2484061 6.418768 72.5340701 6.418768 72.5340701 8.704432 70.2484061 8.704432"></polygon>
                        </g>
                    </g>
                </g>
            </g>
        </g>
    </g>
</svg>