<?xml version="1.0" encoding="UTF-8"?>
<!-- Generated by Pixelmator Pro 3.8 -->
<svg width="16" height="22" viewBox="0 0 16 22" xmlns="http://www.w3.org/2000/svg">
    <g id="Page-1">
        <g id="icon-runner">
            <path id="Path" var:color.fill="currentColor" fill-rule="nonzero" d="M 9.841726 0 C 11.027338 0 11.990408 0.986071 11.990408 2.200001 C 11.990408 3.413929 11.027338 4.4 9.841726 4.4 C 8.656116 4.4 7.693046 3.413929 7.693046 2.200001 C 7.693046 0.986071 8.656116 0 9.841726 0 Z M 4.742446 8.171429 C 4.615828 8.171429 4.504556 8.25 4.458513 8.367857 L 3.614388 10.524643 C 3.361151 11.168928 2.647482 11.483213 2.018226 11.223929 C 1.388969 10.964643 1.082014 10.233929 1.335252 9.589643 L 2.175539 7.432857 C 2.597602 6.360357 3.610552 5.657143 4.742446 5.657143 L 8.47578 5.657143 C 9.569304 5.657143 10.578418 6.250358 11.127098 7.216785 L 12.385611 9.428572 L 14.749161 9.428572 C 15.428298 9.428572 15.976979 9.990356 15.976979 10.685715 C 15.976979 11.381072 15.428298 11.942857 14.749161 11.942857 L 12.385611 11.942857 C 11.510792 11.942857 10.705036 11.4675 10.263789 10.693572 L 9.880095 10.021786 L 9.085851 12.7875 L 11.978897 13.675358 C 13.041726 14.001429 13.582734 15.2075 13.133813 16.248571 L 10.962111 21.253571 C 10.685851 21.890001 9.960671 22.172857 9.342926 21.890001 C 8.72518 21.607143 8.445085 20.864641 8.721342 20.232143 L 10.609113 15.879286 L 6.929497 14.747857 C 5.67482 14.362858 4.934293 13.031072 5.252758 11.730715 L 6.123741 8.171429 L 4.746283 8.171429 Z M 4.435492 15.282143 C 4.945803 15.8675 5.61343 16.315357 6.4 16.555 L 6.580336 16.610001 L 6.315588 17.368214 C 6.093046 18.008572 5.701679 18.578215 5.191367 19.010359 L 2.029736 21.677856 C 1.507914 22.117857 0.732854 22.043213 0.303118 21.508928 C -0.126619 20.974644 -0.053717 20.181072 0.468105 19.741072 L 3.629736 17.073572 C 3.802398 16.928215 3.929017 16.739643 4.005755 16.5275 L 4.435492 15.282143 Z"/>
        </g>
    </g>
</svg>
