<?xml version="1.0" encoding="UTF-8"?>
<svg width="51px" height="45px" viewBox="0 0 51 45" version="1.1" xmlns="http://www.w3.org/2000/svg" xmlns:xlink="http://www.w3.org/1999/xlink">
    <g id="Mobile" stroke="none" stroke-width="1" fill="none" fill-rule="evenodd">
        <g id="Albion-m-Landing" transform="translate(-52.000000, -15502.000000)">
            <g id="noun_Map_1514967" transform="translate(0.000000, 15034.000000)">
                <g transform="translate(52.000000, 468.000000)">
                    <g id="Group" transform="translate(0.000000, 0.371574)" var:color.fill="currentColor" fill-rule="nonzero">
                        <path d="M12.1247264,0.217275097 C12.0603637,0.231089346 11.9988078,0.255709714 11.9426734,0.290090451 L0.291284718,7.27990419 C0.10941887,7.38489211 -0.00186706257,7.57961356 -2.31293334e-05,7.78957671 L-2.31293334e-05,42.7386338 C0.00457623921,42.9444052 0.117413046,43.1324896 0.296825162,43.2334029 C0.476237277,43.3343162 0.695592364,43.3330787 0.873854155,43.2301476 L12.2339582,36.4041233 L24.7774063,43.2483238 C24.948184,43.3389241 25.1527876,43.3389241 25.3235652,43.2483238 L37.8670134,36.4041233 L49.2271174,43.2301476 C49.4053792,43.3330787 49.6247342,43.3343162 49.8041464,43.2334029 C49.9835585,43.1324896 50.0963953,42.9444052 50.1009947,42.7386338 L50.1009947,7.78957671 C50.1028386,7.57961356 49.9915527,7.38489211 49.8096868,7.27990419 L38.1582981,0.290090451 C37.9858776,0.187200893 37.7726195,0.180332605 37.5939339,0.271914284 L25.0504858,7.11607984 L12.5070376,0.271885156 C12.3895131,0.210761559 12.2546642,0.191507711 12.1247264,0.2172984 L12.1247264,0.217275097 Z M12.8165276,1.76450379 L24.4679163,8.13542488 L24.4679163,41.7557226 L12.8165276,35.3848015 L12.8165276,1.76450379 L12.8165276,1.76450379 Z M37.2844439,1.76450379 L37.2844439,35.3848015 L25.6330552,41.7557226 L25.6330552,8.13542488 L37.2844439,1.76450379 L37.2844439,1.76450379 Z M11.6513887,1.80091438 L11.6513887,35.4212179 L1.16513887,41.7010834 L1.16513887,8.09902595 L11.6513887,1.80091438 L11.6513887,1.80091438 Z M38.4495828,1.80091438 L48.9358327,8.09902595 L48.9358327,41.7010834 L38.4495828,35.4212179 L38.4495828,1.80091438 L38.4495828,1.80091438 Z" id="Shape"></path>
                    </g>
                </g>
            </g>
        </g>
    </g>
</svg>