<?xml version="1.0" encoding="UTF-8"?>
<svg width="57px" height="41px" viewBox="0 0 57 41" version="1.1" xmlns="http://www.w3.org/2000/svg" xmlns:xlink="http://www.w3.org/1999/xlink">
    <g id="Mobile" stroke="none" stroke-width="1" fill="none" fill-rule="evenodd">
        <g id="Albion-m-Landing" transform="translate(-49.000000, -15618.000000)">
            <g id="noun_Laptop_2356454" transform="translate(0.000000, 15034.000000)">
                <g transform="translate(48.961538, 584.000000)">
                    <g id="Group" transform="translate(0.038462, 0.000000)" var:color.fill="currentColor" fill-rule="nonzero">
                        <path d="M7.95348837,0.240825318 C6.11105683,0.240825318 4.63953488,1.70811232 4.63953488,3.56548872 L4.63953488,31.4926613 C3.27850943,31.4926427 1.88919952,31.4926613 0.538517442,31.4926613 C0.234692529,31.550821 -0.00545039302,31.8473364 -9.09695279e-05,32.157594 L-9.09695279e-05,34.8173247 C-9.09695279e-05,37.8207591 2.33722005,40.1367862 5.30232558,40.1367862 L51.6976744,40.1367862 C54.66278,40.1367862 57,37.8207591 57,34.8173247 L57,32.157594 C57,31.8094459 56.6842359,31.4926959 56.3372093,31.4926613 L52.3604651,31.4926613 L52.3604651,3.56548872 C52.3604651,1.70811232 50.8889432,0.240825318 49.0465116,0.240825318 L7.95348837,0.240825318 Z M7.95348837,1.57069068 L49.0465116,1.57069068 C50.2279619,1.57069068 51.0348837,2.37245986 51.0348837,3.56548872 L51.0348837,31.4926613 L5.96511628,31.4926613 L5.96511628,3.56548872 C5.96511628,2.37245986 6.7720381,1.57069068 7.95348837,1.57069068 Z M11.9302326,4.89529679 C11.291187,4.89529679 10.643152,5.06680697 10.1282703,5.51872847 C9.61338869,5.97064997 9.27901218,6.70403747 9.27901218,7.5550848 L9.27901218,16.8641423 C9.27409884,17.2154329 9.59166638,17.5385403 9.94186047,17.5385403 C10.2920545,17.5385403 10.6096009,17.2154329 10.6046512,16.8641423 L10.6046512,7.5550848 C10.6046512,7.01451448 10.7730842,6.73447808 10.9981831,6.53690664 C11.2232821,6.33933519 11.5524551,6.22521944 11.9302326,6.22521944 L15.9069767,6.22521944 C16.2571357,6.23020644 16.5792023,5.91161259 16.5792023,5.56028676 C16.5792023,5.20896094 16.2571357,4.89038836 15.9069767,4.89529679 L11.9302326,4.89529679 Z M1.3255814,32.8225267 L55.6744186,32.8225267 L55.6744186,34.8173247 C55.6744186,37.1521028 53.9985523,38.8069208 51.6976744,38.8069208 L5.30232558,38.8069208 C3.00144767,38.8069208 1.3255814,37.1521028 1.3255814,34.8173247 L1.3255814,32.8225267 Z" id="Shape"></path>
                    </g>
                </g>
            </g>
        </g>
    </g>
</svg>