<svg data-name="Layer 1" xmlns="http://www.w3.org/2000/svg" viewBox="0 0 313.97 42.3">
  <defs>
    <mask id="a" x=".04" y="0" width="313.94" height="42.26" maskUnits="userSpaceOnUse">
      <g data-name="mask-2">
        <path data-name="path-1" fill="#fff" fill-rule="evenodd" d="M.27 0h313.94v42.26H.27V0z"
          transform="translate(-.24)" />
      </g>
    </mask>
    <mask id="b" x=".04" y="0" width="313.94" height="42.3" maskUnits="userSpaceOnUse">
      <g data-name="mask-2">
        <path data-name="path-1" fill="#fff" fill-rule="evenodd" d="M.27 0h313.94v42.26H.27V0z"
          transform="translate(-.24)" />
      </g>
    </mask>
    <mask id="c" x="0" y="0" width="313.97" height="42.26" maskUnits="userSpaceOnUse">
      <g data-name="mask-2">
        <path data-name="path-1" fill="#fff" fill-rule="evenodd" d="M.27 0h313.94v42.26H.27V0z"
          transform="translate(-.24)" />
      </g>
    </mask>
  </defs>
  <path data-name="Fill-1"
    d="M71.26 24.46a10.92 10.92 0 00-1 3.38c0 2 1.87 2.09 3.38 2.21v1.45c-1.71 0-3.42-.12-5.13-.16-1.54 0-3.09.12-4.63.16v-1.45c3.33 0 4.51-3.9 5.57-6.4L77.52 4.5h2l8.37 20.68a14.63 14.63 0 002.08 3.91 5.1 5.1 0 002.77 1v1.41c-2.45 0-4.89-.12-7.33-.16-2.11 0-4.27.12-6.38.16v-1.45c1.22-.16 3.37-.08 3.37-1.81a10.74 10.74 0 00-.77-2.66l-.87-2.29h-9zm8.66-3.18L76.34 12l-3.82 9.25z"
    fill="#462b5a" fill-rule="evenodd" />
  <path data-name="Fill-2"
    d="M92.9 10.39c0-2.15.08-3.14-2.58-3.38V5.69l7.86-1.19v22c0 2.59-.25 3.59 2.62 3.71v1.29c-1.7 0-3.39-.12-5.12-.16-1.9 0-3.79.12-5.68.16v-1.27c3.06-.08 2.9-.92 2.9-3.71V10.39"
    fill="#462b5a" fill-rule="evenodd" />
  <path data-name="Fill-3"
    d="M103.97 32.4h-.67V10.56c0-2.22.16-3.27-2.5-3.52V5.71l7.7-1.21v11.83a7 7 0 014.69-2.3c4.89 0 8.31 4.28 8.31 9.08a8.87 8.87 0 01-8.86 9.21 8 8 0 01-5.25-2zm4.61-6.06c0 2.39.48 4.12 3.18 4.12 3.5 0 4-4.4 4-7.06s-.68-6.75-4.14-6.75a3.06 3.06 0 00-2.5 1.3 5.38 5.38 0 00-.52 2.5v5.89z"
    fill="#462b5a" fill-rule="evenodd" />
  <path data-name="Fill-4"
    d="M129.88 26.52a7.69 7.69 0 00.38 3 2.59 2.59 0 002 .72v1.26c-1.54 0-3.11-.12-4.72-.16s-3.42.12-5.15.16v-1.27a2.59 2.59 0 002-.72 7.69 7.69 0 00.38-3v-6.88c0-2.39-.42-3.26-2.45-3.22v-1.32a44.73 44.73 0 007.48-1.19zm-5.87-19a3 3 0 012.91-3 2.88 2.88 0 012.84 3 2.9 2.9 0 01-3 2.94 3 3 0 01-2.8-2.94z"
    fill="#462b5a" fill-rule="evenodd" />
  <path data-name="Fill-5"
    d="M153 22.44c0 5.28-4.46 9.06-9.7 9.06-5.4 0-10.1-3.58-10.1-9.1 0-5.24 4.9-8.9 10-8.9 5.23 0 9.82 3.62 9.82 8.94m-13.87-.08c0 2.94.28 7.55 4.37 7.55 3.44 0 3.56-5 3.56-7.31 0-2.66-.12-7.51-3.84-7.51s-4.09 4.65-4.09 7.27"
    fill="#462b5a" fill-rule="evenodd" />
  <path data-name="Fill-6"
    d="M160.76 26.41a8.42 8.42 0 00.36 3.05 2.65 2.65 0 002.08.74v1.3c-1.69 0-3.34-.12-5-.16s-3.35.12-5 .16v-1.3a2.66 2.66 0 002.09-.74 8.42 8.42 0 00.36-3.05v-5.82c0-2.2 0-4.16-2.56-4.16v-1.34a25.36 25.36 0 007.25-1.59l.43 3.66c1.46-2.11 3.27-3.66 5.84-3.66a5.89 5.89 0 014.69 2.12c1 1.34.94 3.74.94 5.41v5.38a8.42 8.42 0 00.36 3.05 2.66 2.66 0 002.09.74v1.3c-1.54 0-3.08-.12-4.62-.16-1.81 0-3.66.12-5.47.16v-1.38c.63 0 1.65-.05 2.08-.66s.4-2.36.4-3.05v-5.09c0-1.92.12-5.17-2.52-5.17a3.78 3.78 0 00-3.24 2.52 10.93 10.93 0 00-.51 4.24v3.5"
    fill="#462b5a" fill-rule="evenodd" />
  <path data-name="Fill-7"
    d="M210.96 28.57a12.5 12.5 0 01-8.61 2.93c-7.84 0-13.35-5.07-13.35-13 0-8.12 5.78-14 13.87-14a11.38 11.38 0 017.49 2.5l.6-2.26h1.7l.36 8.31h-1.75c-.83-3.8-3.41-6.57-7.49-6.57-6.14 0-7.93 6.53-7.93 11.56 0 5.42 1.87 11.4 8.17 11.48 4.56.08 7-3.4 7.69-7.56h1.59v8.91h-1.54l-.75-2.3"
    fill="#462b5a" fill-rule="evenodd" />
  <path data-name="Fill-8"
    d="M234.9 22.44c0 5.28-4.46 9.06-9.7 9.06-5.4 0-10.1-3.58-10.1-9.1 0-5.24 4.9-8.9 10-8.9 5.23 0 9.82 3.62 9.82 8.94m-13.87-.08c0 2.94.28 7.55 4.37 7.55 3.44 0 3.56-5 3.56-7.31 0-2.66-.12-7.51-3.84-7.51s-4.09 4.65-4.09 7.27"
    fill="#462b5a" fill-rule="evenodd" />
  <path data-name="Fill-9"
    d="M237.76 10.39c0-2.15.08-3.14-2.58-3.38V5.69l7.86-1.19v22c0 2.59-.24 3.59 2.62 3.71v1.29c-1.7 0-3.39-.12-5.12-.16-1.9 0-3.79.12-5.68.16v-1.27c3.06-.08 2.9-.92 2.9-3.71V10.39"
    fill="#462b5a" fill-rule="evenodd" />
  <path data-name="Fill-10"
    d="M248.6 10.39c0-2.15.08-3.14-2.58-3.38V5.69l7.86-1.19v22c0 2.59-.24 3.59 2.62 3.71v1.29c-1.7 0-3.39-.12-5.12-.16-1.9 0-3.79.12-5.68.16v-1.27c3.06-.08 2.9-.92 2.9-3.71V10.39"
    fill="#462b5a" fill-rule="evenodd" />

    <path data-name="Fill-11"
      d="M263.25 22.21c-.08 3.53 1 7.54 5.26 7.54 2.29 0 3.37-1.13 4.9-2.69l1.24 1a8.8 8.8 0 01-7.67 3.94c-5.26 0-9.31-3.33-9.55-8.78s4-9.38 9.47-9.38c4.3 0 8.15 2.92 8.15 7.42 0 1.12-.64 1-1.6 1zm5.38-1.61c.84 0 1.16-.28 1.16-1.12 0-1.84-1.12-4.05-3.21-4.05-2.45 0-3.21 3.05-3.29 5.17z"
      fill="#462b5a" fill-rule="evenodd" />


    <path data-name="Fill-13"
      d="M294.29 13.59a2.18 2.18 0 012.45 2 1.71 1.71 0 01-1.77 1.77c-1.24 0-1.68-1.41-2.73-1.41a.75.75 0 00-.76.44 5.75 5.75 0 01-.92 8.47 11.12 11.12 0 01-5.87 1.44c-1.2.08-3.21 0-3.21 1.68s3.42 1.37 4.46 1.37c4.34 0 9.23.64 9.23 6.13 0 5.26-5.46 6.78-9.71 6.78-3 0-8.64-.76-8.64-4.77a2.76 2.76 0 012.73-2.73c.48 0 1.77.36 1.77 1 0 .2-.28.36-.4.48a1.37 1.37 0 00-.6 1.29c0 2.48 3.09 3.17 5 3.17 2.28 0 6-.73 6-3.73s-3.74-2.89-5.94-2.89c-3.1 0-7.75 0-7.75-4.25a4.4 4.4 0 013.85-4.09v-.08a5.43 5.43 0 01-4.1-5.3c0-4.41 3.78-6.53 7.76-6.53a8.35 8.35 0 015.14 1.48 5.92 5.92 0 014-1.72m-11.6 6.81c0 1.65.28 4.21 2.52 4.33s2.46-2.72 2.46-4.29-.17-5-2.46-5c-2.48 0-2.52 3.13-2.52 5"
      fill="#462b5a" fill-rule="evenodd" />


    <path data-name="Fill-14"
      d="M302.16 22.21c-.08 3.53 1 7.54 5.26 7.54 2.29 0 3.38-1.13 4.9-2.69l1.25 1A8.82 8.82 0 01305.9 32c-5.26 0-9.32-3.33-9.56-8.78s4-9.38 9.48-9.38c4.3 0 8.15 2.92 8.15 7.42 0 1.12-.64 1-1.61 1zm5.38-1.61c.85 0 1.17-.28 1.17-1.12 0-1.84-1.13-4.05-3.21-4.05-2.45 0-3.22 3.05-3.3 5.17z"
      fill="#462b5a" fill-rule="evenodd" />


    <path data-name="Fill-15"
      d="M.04 0v1.2c-.19 19.27-.28 29.89 15.72 38.87l.27.16.28-.16c15.62-8.85 15.65-17.86 15.7-37.6V0H.04"
      fill="#f7c34c" fill-rule="evenodd" />


    <path data-name="Fill-16"
      d="M.04 0v1.2c-.19 19.27-.28 29.89 15.72 38.87l.27.16.28-.16c15.62-8.85 15.65-17.86 15.7-37.6V0zm16 18.78s10.07 0 14.27-.05c-.6 4.64-1.79 8.42-4.21 11.79L15.97 18.76l.05 20.18a29.86 29.86 0 01-10-8.54l10-11.63-14.26-.04c-.26-1.82-.41-3.76-.5-5.82h9.45V1.12h1.33v13.1l4 4.52V1.12h14.9v.16zM6.95 11a2.1 2.1 0 01-.56.2c-.38.08-.19.68-.78.75s-.5-.67-.88-.75-1-.39-.9-.67.23-.12.39-.12a.71.71 0 00.68-.36h.62v1.13c0 .29.24.29.22 0v-1.1h.48a.71.71 0 00.68.36c.16 0 .35 0 .38.12s-.13.34-.32.47zm-.4-8.47a2.42 2.42 0 01.51 1.27c0 .67-.53 1.28-.66 1.92a17.61 17.61 0 00-.33 3.22h-.31V2.55c0-.38-.27-.41-.27 0v6.38h-.37a17.56 17.56 0 00-.36-3.21c-.13-.63-.69-1.24-.67-1.91a2.58 2.58 0 01.53-1.29c.23-.28.7-1.18 1-1.17s.71.93.94 1.21zM1.56 6a1.4 1.4 0 01.33-.52 1.45 1.45 0 011.39-.21 2.28 2.28 0 011 1 2.09 2.09 0 01.28.58 9.62 9.62 0 01.23 2.09h-.51a2.48 2.48 0 00-.44-1.56c-.19-.32-.63-.38-.78-.17-.25.36 0 .89-.28 1s-.77-.1-1.17-1A1.89 1.89 0 011.56 6zm2.72 3.43h2.65v-.29H4.28zm0 .5h2.65v-.29H4.28zm3.07-2.55s-.37.35-.43 1.56h-.54a10.58 10.58 0 01.22-2.09 4.72 4.72 0 01.28-.59 1.94 1.94 0 011-1 1.5 1.5 0 011.4.2 1.82 1.82 0 01.39 1.37 2.08 2.08 0 01-.12.32c-.39.92-.86 1.14-1.14 1s-.05-.6-.3-1-.6-.16-.78.17z"
      fill="#462b5a" fill-rule="evenodd" />

</svg>