<?xml version="1.0" encoding="UTF-8"?>
<svg width="102px" height="127px" viewBox="0 0 102 127" version="1.1" xmlns="http://www.w3.org/2000/svg" xmlns:xlink="http://www.w3.org/1999/xlink">
    <title>logo-large</title>
    <g id="Page-1" stroke="none" stroke-width="1" fill="none" fill-rule="evenodd">
        <g id="logo-large" fill="#FFC845" fill-rule="nonzero">
            <path d="M24.6187434,34.1379974 C22.9600915,34.1379974 22.4705364,33 22.4705364,33 L20.929248,33 L20.929248,36.571887 C21.0077065,37.4852375 20.1654122,37.4852375 20.2425739,36.571887 L20.2425739,33 L18.2473934,33 C18.2473934,33 17.7539477,34.1379974 16.097241,34.1379974 C15.5992564,34.1379974 14.9852051,33.9897304 14.8704352,34.5192555 C14.6778552,35.4139923 16.4830494,36.4204108 17.7092069,36.648267 C18.9386064,36.8754814 18.7875251,38.8478819 20.5097219,39 C22.3914294,38.7740693 21.7786749,36.8754814 23.0041839,36.648267 C23.4937391,36.555199 24.2835116,36.2804878 24.7957614,35.9967908 L24.8015972,36.0038511 C25.4175938,35.5866496 25.9428119,34.9775353 25.8442525,34.5192555 C25.7281857,33.9897304 25.1147828,34.1379974 24.6187434,34.1379974" id="Fill-20"></path>
            <polygon id="Fill-21" points="15.8562092 31 24.8562092 31 24.8562092 30 15.8562092 30"></polygon>
            <polygon id="Fill-22" points="15.8562092 33 24.8562092 33 24.8562092 32 15.8562092 32"></polygon>
            <path d="M28.6558993,24.4691357 C29.4835564,25.596094 28.8900525,27.1355125 29.653419,27.5115982 C30.5697294,27.9682274 32.1330065,27.2680194 33.4357373,24.3301334 C33.5798836,24.0053616 33.7382416,23.6338226 33.8140368,23.3051535 C34.0136761,21.7624873 33.491907,19.9034933 32.5160432,18.9447669 C31.4474655,17.8983521 28.9232129,17.7905278 27.8688469,18.2828819 C25.5327289,19.3780125 25.2180433,20.3497298 24.5013721,21.4623981 C24.1961609,21.9300696 23.8632032,22.6166372 23.5742338,23.3304857 C23.4030177,23.7572359 22.9232067,26.6918741 22.8562092,30 L24.617772,29.9902568 C24.8410973,26.146907 26.0612655,25.0186497 26.0612655,25.0186497 C26.6723647,23.9884734 28.1422511,23.7728249 28.6558993,24.4691357" id="Fill-23"></path>
            <path d="M16.0973271,30 L17.8562091,30 C17.7770899,26.6883649 17.2827636,23.7425917 17.1082955,23.3181399 C16.816839,22.6007384 16.5416122,21.8716188 16.1791513,21.445865 C15.377139,20.5227476 15.1384288,19.3659213 12.7986626,18.2774499 C11.7464441,17.7872472 9.22544748,17.9057291 8.15632312,18.9629525 C7.72826764,19.3854512 7.32793771,20.0104109 7.09598979,20.6067265 C6.75313966,21.6619969 6.75313966,23.215933 7.25828571,24.3603903 C8.57423511,27.3048616 10.5339583,27.8211043 11.133777,27.6134354 C12.0128799,27.3048616 11.2115438,25.6064036 12.0426341,24.4762683 C12.5471039,23.7823027 14.015882,23.9919245 14.6292253,25.0185509 C14.6292253,25.0185509 15.8579407,26.1460823 16.0973271,30" id="Fill-24"></path>
            <g id="Group-28" transform="translate(0.856209, 0.000000)">
                <path d="M18.3726516,29.7749536 L19.5292645,29.7749536 L19.4549806,9.24481443 C19.4549806,7.92637113 20.3933032,7.99969072 20.3157613,9.24219588 L20.3242323,29.7736443 L21.4033032,29.7677526 C21.4547806,25.4301134 21.9806323,21.7091443 22.4465355,19.4100515 C22.8596581,17.3616856 24.6463806,15.3964588 24.5492903,13.2453144 C24.4789161,11.6205 23.4715226,9.94265979 22.928729,9.26576289 C22.1898,8.35385052 20.9439161,5.32090722 19.9280516,5.3641134 C19.0542387,5.33007216 17.5490129,8.22423196 16.8328903,9.12239691 C16.2907484,9.80584021 15.2116774,11.6421031 15.1426065,13.2682268 C15.0657161,15.4206804 16.8602581,17.375433 17.2838065,19.4244536 C17.754271,21.7189639 18.299671,25.4353505 18.3726516,29.7749536" id="Fill-25"></path>
                <path d="M0.594270968,0.0536804124 L0.557129032,3.98478866 C0.00586451613,64.3988196 -0.299741935,97.6813299 49.5284452,125.843907 L50.4752387,126.38333 L51.420729,125.843907 C100.107942,98.0878608 100.184181,69.8486907 100.349039,7.97481443 L100.373148,0.0536804124 L0.594270968,0.0536804124 Z M37.4951097,3.91670619 L50.1566,3.91670619 L50.0823161,59.5479433 L37.3673935,45.0385206 L37.4951097,3.91670619 Z M4.40294839,4.0188299 L4.40294839,3.91670619 L33.2537613,3.91670619 L33.2303032,32.3869639 L33.2146645,32.3319742 L33.1957677,40.8075876 L25.3614258,40.8128247 L25.3640323,40.8259175 L4.65381935,40.8102062 C4.16836774,29.7834639 4.27914194,17.6078299 4.40294839,4.0188299 L4.40294839,4.0188299 Z M19.5894387,95.4555567 C12.1955871,84.9747835 8.31001935,73.2449588 6.31282581,59.5407423 L50.0920903,59.6343557 L19.5894387,95.4555567 Z M50.468071,121.940294 C50.3976968,121.897088 50.3305806,121.859773 50.2602065,121.819186 L50.1175032,59.6088247 L81.2248516,96.1069227 C74.4513355,105.43684 64.6549871,113.740938 50.468071,121.940294 L50.468071,121.940294 Z M96.5051742,7.96630412 C96.4504387,28.5684536 96.4035226,45.3337629 94.5144968,59.5479433 C80.4370516,59.8392577 50.1924387,59.6867268 50.1924387,59.6867268 L96.5136452,4.92026804 L96.5051742,7.96630412 L96.5051742,7.96630412 Z" id="Fill-27"></path>
            </g>
        </g>
    </g>
</svg>