<?xml version="1.0" encoding="UTF-8"?>
<svg width="71px" height="91px" viewBox="0 0 71 91" version="1.1" xmlns="http://www.w3.org/2000/svg" xmlns:xlink="http://www.w3.org/1999/xlink">
    <title>albion_stacked_reverse_pms1225_legacy copy</title>
    <g id="Revised-Concept-(approved)" stroke="none" stroke-width="1" fill="none" fill-rule="evenodd">
        <g id="Albion-Sticky" transform="translate(-790.000000, 1.000000)">
            <g id="albion_stacked_reverse_pms1225_legacy-copy" transform="translate(790.000000, -0.250000)">
                <g id="Group-3" transform="translate(0.000000, 0.250000)" fill="#4B306A">
                    <path d="M0.169480796,0 L0.143461082,2.75393054 C-0.242726245,45.0768671 -0.456818274,68.3928675 34.4502251,88.1221084 L35.1134996,88.5 L35.7758611,88.1221084 C69.8835971,68.677662 69.937006,48.8947641 70.052497,5.54913564 L70.069387,0 L0.169480796,0 Z" id="Path"></path>
                </g>
                <path d="M21.5629448,33.4206201 C20.7165347,33.4206201 20.4667147,32.8399 20.4667147,32.8399 L19.6801953,32.8399 L19.6801953,34.662634 C19.7202326,35.1287167 19.2904099,35.1287167 19.3297855,34.662634 L19.3297855,32.8399 L18.3116448,32.8399 C18.3116448,32.8399 18.0598395,33.4206201 17.2144221,33.4206201 C16.9603005,33.4206201 16.6469501,33.3449594 16.5883831,33.6151761 C16.4901095,34.0717603 17.4113001,34.5853356 18.0370083,34.7016107 C18.6643708,34.8175582 18.5872741,35.8240741 19.4661111,35.9017 C20.4263464,35.7864076 20.1136578,34.8175582 20.7390351,34.7016107 C20.9888551,34.654118 21.391876,34.5139329 21.653277,34.3691623 L21.656255,34.3727652 C21.9705981,34.1598673 22.2386169,33.8490363 22.188322,33.6151761 C22.1290932,33.3449594 21.8160737,33.4206201 21.5629448,33.4206201" id="Fill-20" fill="#F7C34C"></path>
                <polygon id="Fill-21" fill="#F7C34C" points="17.0914235 31.8193 21.6841235 31.8193 21.6841235 31.309 17.0914235 31.309"></polygon>
                <polygon id="Fill-22" fill="#F7C34C" points="17.0914235 32.8399 21.6841235 32.8399 21.6841235 32.3296 17.0914235 32.3296"></polygon>
                <path d="M23.6231054,28.4866 C24.0454588,29.0616868 23.7425938,29.847252 24.1321397,30.0391686 C24.5997329,30.2721865 25.3974732,29.9148703 26.0622568,28.4156671 C26.1358146,28.249936 26.2166247,28.0603397 26.255303,27.8926198 C26.3571789,27.1053973 26.0909202,26.1567527 25.5929368,25.6675145 C25.0476416,25.1335291 23.7595156,25.0785063 23.2214725,25.3297546 C22.0293516,25.8885998 21.8687675,26.3844671 21.5030502,26.9522618 C21.3473009,27.1909145 21.1773926,27.54127 21.0299315,27.9055469 C20.94256,28.1233175 20.6977124,29.6208634 20.6635235,31.309 L21.562449,31.3040281 C21.6764119,29.3427666 22.2990638,28.7670169 22.2990638,28.7670169 C22.6109077,28.241318 23.3609908,28.1312726 23.6231054,28.4866" id="Fill-23" fill="#F7C34C"></path>
                <path d="M17.214466,31.309 L18.1120235,31.309 C18.071649,29.6190726 17.8193943,28.1158445 17.7303632,27.8992468 C17.581633,27.5331568 17.4411847,27.1610871 17.2562209,26.9438249 C16.846954,26.4727581 16.7251402,25.8824296 15.5311575,25.3269827 C14.9942104,25.0768322 13.7077458,25.1372936 13.1621717,25.6767947 C12.943735,25.8923958 12.7394466,26.2113127 12.6210836,26.5156125 C12.4461272,27.054117 12.4461272,27.8470906 12.7039032,28.4311072 C13.3754322,29.9336709 14.3754789,30.1971095 14.6815664,30.0911361 C15.1301726,29.9336709 14.7212508,29.0669477 15.1453562,28.4902397 C15.4027871,28.136109 16.1523046,28.2430791 16.4652937,28.7669665 C16.4652937,28.7669665 17.0923071,29.3423458 17.214466,31.309" id="Fill-24" fill="#F7C34C"></path>
                <g id="Group-28" transform="translate(9.436924, 16.000000)" fill="#F7C34C">
                    <path d="M8.86526412,15.1941588 L9.45548368,15.1941588 L9.41757662,4.71762881 C9.41757662,4.04482719 9.89640264,4.08224218 9.85683299,4.71629256 L9.86115572,15.1934907 L10.4118056,15.1904841 C10.4380746,12.9769869 10.7064166,11.0781764 10.9441671,9.9049493 C11.1549835,8.85966814 12.066748,7.85681291 12.0172029,6.75908396 C11.9812909,5.92994115 11.467218,5.07373929 11.1902304,4.7283188 C10.8131549,4.26296992 10.1773804,2.71525895 9.65898474,2.73730707 C9.21307801,2.71993583 8.44496128,4.19682557 8.07952393,4.65515914 C7.8028689,5.00392026 7.25221899,5.94096521 7.21697207,6.77077614 C7.17773494,7.86917321 8.09348969,8.86668345 8.30962643,9.91229868 C8.54970447,11.0831873 8.82802209,12.9796594 8.86526412,15.1941588" id="Fill-25"></path>
                    <path d="M0.303256475,0.0273931144 L0.284302945,2.03343765 C0.00299266258,32.8627176 -0.15295831,49.8467826 25.2743656,64.2181459 L25.7575143,64.4934132 L26.239998,64.2181459 C51.0850828,50.0542354 51.1239874,35.6437869 51.2081145,4.06954781 L51.2204176,0.0273931144 L0.303256475,0.0273931144 Z M19.1337545,1.99869517 L25.594913,1.99869517 L25.5570059,30.3873155 L19.0685809,22.9831571 L19.1337545,1.99869517 Z M2.24682456,2.0508089 L2.24682456,1.99869517 L16.9693944,1.99869517 L16.9574237,16.5270677 L16.9494433,16.4990064 L16.9398003,20.824112 L12.9419356,20.8267845 L12.9432657,20.8334657 L2.37484402,20.8254482 C2.12711806,15.1985016 2.18364613,8.9852756 2.24682456,2.0508089 L2.24682456,2.0508089 Z M9.99649057,48.7109706 C6.2234081,43.362632 4.24060288,37.3769025 3.22143501,30.3836408 L25.5619937,30.4314117 L9.99649057,48.7109706 Z M25.7538566,62.2261319 C25.7179447,62.2040838 25.6836953,62.1850423 25.6477834,62.1643304 L25.5749619,30.4183833 L41.4490418,49.0433626 C37.9925165,53.8044196 32.9934399,58.0420007 25.7538566,62.2261319 L25.7538566,62.2261319 Z M49.2465904,4.06520499 C49.2186589,14.5784819 49.1947176,23.1338192 48.2307477,30.3873155 C41.0470274,30.5359732 25.6132015,30.4581367 25.6132015,30.4581367 L49.2509131,2.51081278 L49.2465904,4.06520499 L49.2465904,4.06520499 Z" id="Fill-27"></path>
                </g>
            </g>
        </g>
    </g>
</svg>