<svg xmlns="http://www.w3.org/2000/svg" viewBox="0 0 154.78 45.91"><g id="Layer_2" data-name="Layer 2"><g id="Layer_1-2" data-name="Layer 1"><path class="cls-1" d="M57.13.77V11.34h-.88V.77H52.4V0H61V.77H57.13M70,11.34V6H63.48v5.38h-.86V0h.86V5.18H70V0h.87V11.34H70m3.58,0V0H80V.77H74.43V5.2h5V6h-5v4.58H80v.79h-6.4M55.71,17.89a12.45,12.45,0,0,0-1.56.11v5.73c.4,0,1,.1,1.42.1,2.27,0,3.47-1.28,3.47-3.06C59,19.25,57.9,17.89,55.71,17.89Zm-.17,6.7a12.33,12.33,0,0,1-1.39-.09v4h-.87V17.27a18.11,18.11,0,0,1,2.33-.15c2.92,0,4.36,1.67,4.36,3.61,0,2.27-1.65,3.86-4.43,3.86ZM69,28.54V23.15H62.52v5.39h-.86V17.2h.86v5.18H69V17.2h.86V28.54H69m3.6,0h.87V17.2h-.87Zm3.58,0V17.2h.86V27.75H82.6v.79H76.21m12.45-9.77-2.33,5.56H91l-2.33-5.55Zm4.13,9.77-1.47-3.47H86l-1.45,3.47h-.91L88.6,17h.15l5,11.53Zm5.29-10.69a12.18,12.18,0,0,0-1.9.12v9.8a14,14,0,0,0,2,.12c3.61,0,5.43-2.24,5.43-5.12,0-2.71-1.93-4.92-5.5-4.92Zm0,10.8a20.9,20.9,0,0,1-2.81-.19V17.27a21,21,0,0,1,2.75-.18c4.22,0,6.45,2.77,6.45,5.68,0,3.12-2.18,5.88-6.39,5.88Zm8.56-.11V17.2h6.4V18h-5.53V22.4h5v.77h-5v4.58h5.53v.79h-6.4m8.29,0V17.2h.86V27.75h5.53v.79H115m10.34-10.65a12.45,12.45,0,0,0-1.56.11v5.73c.4,0,1,.1,1.42.1,2.27,0,3.48-1.28,3.48-3.06C128.65,19.25,127.5,17.89,125.31,17.89Zm-.17,6.7a12.33,12.33,0,0,1-1.39-.09v4h-.87V17.27a18.11,18.11,0,0,1,2.33-.15c2.92,0,4.36,1.67,4.36,3.61,0,2.27-1.65,3.86-4.43,3.86Zm13.49,3.95V23.15h-6.51v5.39h-.86V17.2h.86v5.18h6.51V17.2h.87V28.54h-.87m3.6,0h.87V17.2h-.87Zm7.49-9.76-2.33,5.55h4.67Zm4.13,9.76-1.47-3.47h-5.32l-1.45,3.47h-.91l5-11.53h.15l5,11.53ZM58.77,45.89a5.67,5.67,0,0,1-5.94-5.8,5.75,5.75,0,0,1,5.94-5.88,6.86,6.86,0,0,1,3.94,1.23l-.39.73A6.54,6.54,0,0,0,58.72,35a4.81,4.81,0,0,0-4.94,5.06,4.81,4.81,0,0,0,5,5,6.66,6.66,0,0,0,3.6-1.15l.31.71a6.89,6.89,0,0,1-3.91,1.24m5.69-.15V34.39h6.4v.78H65.33v4.42h5v.78h-5V45h5.53v.79h-6.4m16.68.17L73.6,36.28v9.46h-.85V34.27l.2-.05,7.48,9.52V34.39h.86V45.88l-.15,0m6.54-10.74V45.74H86.8V35.17H83v-.78h8.56v.78H87.68m5.49,10.57V34.39h6.4v.78H94v4.42h5v.78H94V45h5.54v.79h-6.4M104,35.09a9.81,9.81,0,0,0-1.64.14v5.12a11.44,11.44,0,0,0,1.43.09c2.27,0,3.49-1.06,3.49-2.72s-1.13-2.63-3.28-2.63Zm3.82,10.65-3.09-4.62a6.15,6.15,0,0,1-1,.07c-.4,0-1,0-1.38-.07v4.62h-.88V34.5a17.59,17.59,0,0,1,2.43-.18c2.8,0,4.3,1.37,4.3,3.35a3.35,3.35,0,0,1-2.63,3.27l3.29,4.8ZM45.6,12.69V0H30.8A25.82,25.82,0,0,1,45.6,12.69M14.82,0H0v12.7A25.75,25.75,0,0,1,14.82,0m.53,9.25a19.29,19.29,0,0,1,20,3.92,19.8,19.8,0,0,1,6,10.94,17.67,17.67,0,0,0-4.22-6,17.2,17.2,0,0,0-10.32-4.57,14.51,14.51,0,0,0-5.75,1.92,15,15,0,0,0-5.35,20.35,14.6,14.6,0,0,0,20.08,5.42,14.43,14.43,0,0,0,3.24-2.58,16.53,16.53,0,0,1-8.25,7H45.6v-23A22.93,22.93,0,0,0,17.75,8.42a22.62,22.62,0,0,0-2.4.84ZM13.63,44.17a17.24,17.24,0,0,0,1.85,1.49h3.64a16.41,16.41,0,0,1-8.38-7.22,16.86,16.86,0,0,1,1-18.23,17.83,17.83,0,0,0,1.91,24M9.05,42.33A20,20,0,0,1,7.83,14.41c.44-.48.9-.93,1.37-1.36A23.51,23.51,0,0,0,4.56,43.19,25.78,25.78,0,0,1,0,36.88v8.78H14a19.68,19.68,0,0,1-4.94-3.33"/></g></g></svg>